<svg xmlns="http://www.w3.org/2000/svg" viewBox="0 0 512 512" width="30" height="30"><defs><style>.cls-2{fill:#fff}.cls-7{fill:#505560}</style></defs><circle cx="256" cy="256" r="256" style="fill:#9e6f46" id="BULINE"/><g id="Icons"><path class="cls-2" d="M170.5 461.45a9.26 9.26 0 0 1-9.26-9.26v-51.85a9.26 9.26 0 1 1 18.52 0v51.85a9.26 9.26 0 0 1-9.26 9.26zM214.45 461.45a9.26 9.26 0 0 1-9.26-9.26v-51.85a9.26 9.26 0 0 1 18.52 0v51.85a9.26 9.26 0 0 1-9.26 9.26zM258.4 461.45a9.26 9.26 0 0 1-9.26-9.26v-51.85a9.26 9.26 0 0 1 18.52 0v51.85a9.27 9.27 0 0 1-9.26 9.26zM302.35 461.45a9.27 9.27 0 0 1-9.27-9.26v-51.85a9.27 9.27 0 0 1 18.53 0v51.85a9.27 9.27 0 0 1-9.26 9.26zM346.3 461.45a9.27 9.27 0 0 1-9.27-9.26v-51.85a9.27 9.27 0 0 1 18.53 0v51.85a9.27 9.27 0 0 1-9.26 9.26zM170.5 119.34a9.25 9.25 0 0 1-9.26-9.26V58.23a9.26 9.26 0 1 1 18.52 0v51.85a9.25 9.25 0 0 1-9.26 9.26zM214.45 119.34a9.25 9.25 0 0 1-9.26-9.26V58.23a9.26 9.26 0 0 1 18.52 0v51.85a9.25 9.25 0 0 1-9.26 9.26zM258.4 119.34a9.25 9.25 0 0 1-9.26-9.26V58.23a9.26 9.26 0 0 1 18.52 0v51.85a9.26 9.26 0 0 1-9.26 9.26zM302.35 119.34a9.26 9.26 0 0 1-9.27-9.26V58.23a9.27 9.27 0 0 1 18.53 0v51.85a9.26 9.26 0 0 1-9.26 9.26zM346.3 119.34a9.26 9.26 0 0 1-9.27-9.26V58.23a9.27 9.27 0 0 1 18.53 0v51.85a9.26 9.26 0 0 1-9.26 9.26zM453.07 181.21h-51.84a9.26 9.26 0 1 1 0-18.52h51.84a9.26 9.26 0 1 1 0 18.52zM453.07 225.16h-51.84a9.26 9.26 0 1 1 0-18.52h51.84a9.26 9.26 0 1 1 0 18.52zM453.07 269.11h-51.84a9.26 9.26 0 1 1 0-18.52h51.84a9.26 9.26 0 1 1 0 18.52zM453.07 313.06h-51.84a9.26 9.26 0 1 1 0-18.52h51.84a9.26 9.26 0 1 1 0 18.52zM453.07 357h-51.84a9.27 9.27 0 1 1 0-18.53h51.84a9.27 9.27 0 1 1 0 18.53zM114.91 181.21H63.06a9.26 9.26 0 1 1 0-18.52h51.85a9.26 9.26 0 0 1 0 18.52zM114.91 225.16H63.06a9.26 9.26 0 0 1 0-18.52h51.85a9.26 9.26 0 0 1 0 18.52zM114.91 269.11H63.06a9.26 9.26 0 1 1 0-18.52h51.85a9.26 9.26 0 0 1 0 18.52zM114.91 313.06H63.06a9.26 9.26 0 0 1 0-18.52h51.85a9.26 9.26 0 1 1 0 18.52zM114.91 357H63.06a9.27 9.27 0 0 1 0-18.53h51.85a9.27 9.27 0 0 1 0 18.53z"/><rect x="106.99" y="105.08" width="302.83" height="302.83" rx="54.64" style="fill:#76d67b"/><rect x="159.6" y="157.69" width="197.61" height="197.61" rx="35.65" style="fill:#1bbca1"/><path d="M244.62 407.91h-83A54.64 54.64 0 0 1 107 353.27V159.72a54.65 54.65 0 0 1 54.64-54.64h83a54.63 54.63 0 0 0-54.61 53v196.84a54.63 54.63 0 0 0 54.59 52.99z" style="fill:#66bf68"/><path d="M190 353.27v1.65a35.68 35.68 0 0 1-30.41-35.28V193.35A35.66 35.66 0 0 1 190 158.08v1.64z" style="fill:#16a388"/><path class="cls-7" d="m210.52 250.75 7.39-2.87a5.5 5.5 0 0 0 3.51-5.12 5.5 5.5 0 0 0-7.6-5.08l-28.39 11.74a5.53 5.53 0 0 0-3.39 5.08v2.78a5.49 5.49 0 0 0 3.39 5.07l28.39 11.75a5.5 5.5 0 0 0 7.6-5.08 5.52 5.52 0 0 0-3.51-5.13l-7.39-2.89a5.49 5.49 0 0 1 0-10.25zM263.68 227.27a5.52 5.52 0 0 0-5.36 4.3L247.76 279a5.44 5.44 0 0 0-.14 1.19 5.5 5.5 0 0 0 10.87 1.19L269 234a5.49 5.49 0 0 0-5.32-6.73zM331.38 249.39 303 237.65a5.5 5.5 0 0 0-7.6 5.08 5.52 5.52 0 0 0 3.51 5.12l7.39 2.87a5.49 5.49 0 0 1 0 10.24l-7.39 2.85a5.52 5.52 0 0 0-3.51 5.13 5.5 5.5 0 0 0 7.6 5.08l28.39-11.75a5.49 5.49 0 0 0 3.39-5.07v-2.78a5.53 5.53 0 0 0-3.4-5.03z"/><circle class="cls-7" cx="192.23" cy="134.84" r="11.33"/><circle class="cls-7" cx="235.24" cy="134.84" r="11.33"/><circle class="cls-7" cx="278.26" cy="134.84" r="11.33"/><circle class="cls-7" cx="321.28" cy="134.84" r="11.33"/><circle class="cls-7" cx="192.23" cy="376.91" r="11.33"/><circle class="cls-7" cx="235.24" cy="376.91" r="11.33"/><circle class="cls-7" cx="278.26" cy="376.91" r="11.33"/><circle class="cls-7" cx="321.28" cy="376.91" r="11.33"/><circle class="cls-7" cx="379.02" cy="191.97" r="11.33"/><circle class="cls-7" cx="379.02" cy="234.99" r="11.33"/><circle class="cls-7" cx="379.02" cy="278" r="11.33"/><circle class="cls-7" cx="379.02" cy="321.02" r="11.33"/><circle class="cls-7" cx="136.75" cy="191.97" r="11.33"/><circle class="cls-7" cx="136.75" cy="234.99" r="11.33"/><circle class="cls-7" cx="136.75" cy="278" r="11.33"/><circle class="cls-7" cx="136.75" cy="321.02" r="11.33"/></g></svg>