<?xml version="1.0" standalone="no"?>
<!DOCTYPE svg PUBLIC "-//W3C//DTD SVG 20010904//EN"
 "http://www.w3.org/TR/2001/REC-SVG-20010904/DTD/svg10.dtd">
<svg version="1.0" xmlns="http://www.w3.org/2000/svg"
 width="1112.000000pt" height="158.000000pt" viewBox="0 0 1112.000000 158.000000"
 preserveAspectRatio="xMidYMid meet">

<g transform="translate(0.000000,158.000000) scale(0.100000,-0.100000)"
fill="#002D72" stroke="none">
<path d="M8080 1273 c-13 -31 -48 -85 -77 -120 l-54 -63 23 -31 23 -31 57 61
57 61 196 0 195 0 0 -142 c-1 -79 -5 -227 -9 -329 -11 -245 -18 -258 -138
-259 -40 0 -73 -4 -73 -9 0 -4 5 -22 11 -40 11 -31 11 -31 82 -31 95 0 134 20
165 82 22 43 24 64 32 310 5 145 10 316 10 381 l0 117 -211 0 -211 0 6 23 c22
76 22 77 -21 77 -38 0 -40 -1 -63 -57z"/>
<path d="M7665 1278 c-3 -7 -4 -222 -3 -478 l3 -465 43 -3 42 -3 0 440 0 441
71 0 c62 0 70 -2 66 -17 -3 -10 -24 -80 -48 -155 l-42 -137 38 -72 c28 -54 39
-88 43 -137 6 -77 -6 -92 -75 -92 -47 0 -48 -2 -32 -49 9 -26 16 -31 42 -31
48 0 102 18 121 39 46 50 35 174 -24 295 l-32 64 46 142 c26 80 46 161 46 186
l0 44 -150 0 c-111 0 -152 -3 -155 -12z"/>
<path d="M10250 1011 c0 -340 -10 -415 -74 -543 l-43 -88 35 -26 c39 -31 35
-34 86 66 31 62 58 149 71 233 l6 37 139 0 140 0 0 -123 c0 -82 -4 -127 -12
-135 -7 -7 -42 -12 -89 -12 l-77 0 11 -41 10 -41 99 4 c85 3 101 7 121 26 l22
23 3 449 3 450 -226 0 -225 0 0 -279z m360 109 l0 -90 -140 0 -140 0 0 90 0
90 140 0 140 0 0 -90z m0 -260 l0 -90 -140 0 -140 0 0 90 0 90 140 0 140 0 0
-90z"/>
<path d="M8742 808 l3 -473 43 -3 c39 -3 42 -1 42 22 l0 26 360 0 360 0 0 -26
c0 -23 3 -25 43 -22 l42 3 3 473 2 472 -450 0 -450 0 2 -472z m808 22 l0 -380
-360 0 -360 0 0 380 0 380 360 0 360 0 0 -380z"/>
<path d="M8990 1050 l0 -100 200 0 200 0 0 100 0 100 -200 0 -200 0 0 -100z
m320 5 l0 -35 -120 0 -120 0 0 35 0 35 120 0 120 0 0 -35z"/>
<path d="M8942 768 l3 -133 37 -3 37 -3 3 103 3 103 163 3 162 2 0 -100 0
-100 40 0 40 0 0 130 0 130 -245 0 -246 0 3 -132z"/>
<path d="M9157 793 c-4 -3 -7 -15 -7 -25 0 -33 -49 -116 -84 -143 -19 -15 -65
-37 -101 -50 -36 -12 -68 -25 -71 -28 -3 -3 2 -19 11 -37 14 -28 20 -31 48
-25 18 4 65 22 105 41 83 40 132 95 157 178 24 80 21 96 -18 96 -19 0 -37 -3
-40 -7z"/>
<path d="M9221 631 l-20 -28 125 -63 c69 -34 126 -60 128 -59 17 23 36 55 36
62 0 8 -125 69 -207 100 l-42 16 -20 -28z"/>
<path d="M9810 850 l0 -420 39 0 c40 0 40 0 43 42 l3 43 123 3 122 3 0 374 0
375 -165 0 -165 0 0 -420z m248 213 l3 -123 -86 0 -85 0 0 118 c0 65 3 122 7
126 4 4 41 5 83 4 l75 -3 3 -122z m2 -333 l0 -130 -85 0 -85 0 0 123 c0 68 3
127 7 130 3 4 42 7 85 7 l78 0 0 -130z"/>
<path d="M3885 1241 c-37 -16 -58 -49 -58 -93 0 -114 171 -121 189 -7 5 30 2
41 -22 68 -31 33 -76 46 -109 32z"/>
<path d="M390 1234 c0 -4 15 -23 33 -43 17 -20 74 -114 126 -209 l94 -173 -5
-132 c-4 -103 -10 -143 -26 -184 l-22 -53 146 0 c135 0 146 1 139 18 -28 66
-35 116 -35 236 l0 130 66 120 c82 149 115 199 167 254 l41 42 -117 0 c-64 0
-117 -4 -117 -8 0 -5 9 -17 20 -27 27 -24 41 -82 31 -125 -7 -31 -97 -200
-106 -200 -9 0 -106 187 -115 221 -11 41 -6 81 16 117 l14 22 -175 0 c-96 0
-175 -3 -175 -6z"/>
<path d="M5555 1208 c-3 -18 -14 -80 -25 -138 -10 -58 -15 -108 -11 -113 4 -4
33 30 64 76 77 112 133 166 181 174 l37 6 -3 -329 c-3 -307 -5 -333 -25 -386
l-21 -58 145 0 c134 0 145 1 138 18 -31 79 -35 135 -35 439 0 309 0 313 20
313 53 0 118 -63 205 -198 63 -98 67 -86 32 103 l-22 120 -337 3 -337 2 -6
-32z"/>
<path d="M8085 1083 c-8 -19 -15 -38 -15 -40 0 -3 -17 -33 -37 -66 l-36 -60
22 -19 c33 -26 45 -23 70 22 19 35 27 40 57 40 l34 0 0 -55 0 -55 -95 0 -95 0
0 -35 0 -35 95 0 95 0 0 -100 0 -100 -45 0 -45 0 0 71 0 70 -37 -3 -38 -3 0
-105 0 -105 203 -3 202 -2 0 110 0 110 -35 0 -35 0 0 -70 0 -70 -45 0 -45 0 0
100 0 100 95 0 95 0 0 35 0 35 -95 0 -95 0 0 55 0 55 80 0 80 0 0 35 0 35
-135 0 c-77 0 -135 4 -135 9 0 5 4 21 10 35 5 14 8 26 7 26 -1 0 -17 4 -35 9
-31 9 -33 8 -47 -26z"/>
<path d="M5232 993 l-73 -46 -42 19 c-57 26 -188 26 -237 0 -77 -40 -112 -93
-112 -166 0 -55 20 -98 61 -132 l29 -25 -43 -31 c-32 -22 -47 -41 -54 -69 -14
-51 2 -108 35 -130 l25 -16 -35 -20 c-44 -25 -63 -68 -48 -102 48 -104 391
-113 517 -13 54 42 70 128 36 184 -35 57 -151 93 -306 94 -66 0 -108 16 -113
43 -6 32 15 47 49 35 17 -6 64 -8 105 -6 59 4 83 11 121 34 89 55 119 170 64
245 l-21 29 60 -7 60 -6 0 67 c0 36 -1 66 -2 66 -2 0 -36 -21 -76 -47z m-185
-65 c12 -24 17 -58 17 -128 0 -115 -18 -160 -63 -160 -44 0 -56 35 -56 160 0
125 12 160 56 160 22 0 32 -8 46 -32z m58 -569 c66 -9 97 -34 88 -70 -16 -58
-204 -81 -293 -36 -49 24 -67 57 -56 100 l6 26 98 -5 c53 -3 124 -10 157 -15z"/>
<path d="M2335 968 c-55 -16 -105 -30 -112 -33 -8 -3 -4 -18 13 -49 22 -39 26
-63 31 -158 5 -101 -6 -227 -23 -272 -5 -14 8 -16 111 -16 l117 0 -7 28 c-4
15 -9 109 -12 208 l-5 181 28 22 c34 27 87 28 114 1 18 -18 20 -33 20 -178 0
-100 -5 -177 -14 -210 l-13 -52 120 0 c109 0 119 1 112 18 -17 45 -25 127 -25
264 0 168 -9 201 -60 238 -68 49 -199 30 -262 -37 l-23 -25 -5 49 -5 48 -100
-27z"/>
<path d="M4215 969 c-55 -16 -106 -31 -113 -34 -11 -4 -8 -14 10 -42 22 -36
23 -47 23 -213 0 -96 -4 -190 -8 -207 l-9 -33 117 0 117 0 -7 28 c-16 62 -25
154 -25 264 l0 116 31 26 c42 35 90 35 118 0 19 -24 21 -40 21 -158 0 -123 -9
-218 -25 -258 -7 -17 2 -18 110 -18 l117 0 -7 28 c-3 15 -10 115 -13 222 -8
225 -16 249 -85 281 -79 36 -180 16 -237 -46 l-25 -27 -5 50 -5 49 -100 -28z"/>
<path d="M1850 975 c-74 -24 -200 -132 -129 -111 54 16 135 23 166 14 41 -11
53 -33 53 -97 l0 -50 -57 -16 c-121 -35 -202 -96 -204 -153 -3 -79 19 -115 80
-132 57 -15 149 15 174 57 6 10 16 5 41 -22 31 -33 37 -35 96 -35 59 0 64 2
101 39 47 46 50 63 11 55 -17 -4 -32 -1 -39 8 -7 8 -13 80 -15 183 -4 198 -13
224 -81 256 -50 22 -132 24 -197 4z m90 -361 l0 -85 -42 3 c-35 2 -45 8 -56
31 -12 24 -11 32 5 64 14 28 69 73 90 73 2 0 3 -39 3 -86z"/>
<path d="M2962 965 c-121 -34 -113 -27 -87 -79 30 -59 40 -179 26 -306 -6 -52
-13 -105 -17 -117 -6 -23 -6 -23 111 -23 117 0 117 0 110 23 -5 12 -10 106
-12 208 l-5 186 28 22 c33 26 75 27 98 2 16 -17 17 -39 13 -203 -2 -101 -8
-195 -12 -210 l-7 -28 117 0 c108 0 117 1 110 18 -22 56 -36 352 -19 397 8 20
56 45 88 45 47 0 56 -30 56 -190 0 -80 -6 -173 -14 -207 l-13 -63 115 0 114 0
-7 27 c-3 16 -10 119 -13 230 -6 182 -9 204 -28 230 -60 82 -196 82 -274 0
-31 -33 -34 -33 -48 -2 -6 13 -29 33 -51 45 -74 37 -163 20 -228 -42 l-33 -32
0 47 c0 56 1 56 -118 22z"/>
<path d="M3900 964 c-47 -13 -91 -26 -97 -28 -9 -4 -5 -19 13 -53 39 -77 44
-292 8 -420 -6 -23 -6 -23 111 -23 l117 0 -8 23 c-4 12 -9 136 -11 275 -5 292
10 267 -133 226z"/>
<path d="M6433 976 c-53 -17 -100 -46 -138 -87 l-30 -32 30 7 c183 38 225 22
225 -89 0 -44 -1 -44 -42 -55 -131 -33 -210 -92 -224 -165 -14 -76 35 -128
121 -128 55 0 86 12 126 49 l25 24 13 -24 c17 -31 51 -46 107 -46 52 0 94 19
123 56 28 36 26 47 -8 39 -56 -12 -61 6 -61 200 l0 174 -31 35 c-47 54 -142
71 -236 42z m87 -361 l0 -85 -38 0 c-112 0 -82 139 36 169 1 1 2 -37 2 -84z"/>
<path d="M6994 969 c-193 -74 -249 -313 -105 -455 118 -118 311 -116 424 5 58
62 81 122 75 203 -2 35 -13 81 -23 103 -64 133 -231 198 -371 144z m151 -25
c30 -30 46 -75 57 -158 20 -147 -13 -292 -74 -326 -25 -13 -31 -13 -55 0 -16
8 -39 37 -53 65 -22 44 -24 62 -25 170 0 133 14 200 51 240 27 29 74 33 99 9z"/>
<path d="M1062 933 c20 -33 23 -55 28 -228 4 -159 8 -195 23 -218 28 -43 62
-60 120 -60 62 0 103 19 146 68 l31 36 0 -51 c0 -38 4 -50 15 -50 18 0 208 40
213 45 2 2 -7 18 -20 35 -22 30 -23 39 -26 246 l-3 214 -110 0 c-60 0 -109 -2
-109 -5 0 -3 8 -18 18 -32 14 -22 18 -56 20 -193 l4 -165 -27 -28 c-46 -45
-97 -32 -115 31 -5 20 -10 117 -10 215 l0 177 -110 0 -109 0 21 -37z"/>
</g>
</svg>
