<?xml version="1.0" encoding="UTF-8" standalone="no"?>
<!-- Created with Inkscape (http://www.inkscape.org/) -->

<svg
   version="1.1"
   id="svg2"
   width="668.92798"
   height="219.00133"
   viewBox="0 0 668.92798 219.00133"
   sodipodi:docname="University of Amherst Logo.ai"
   xmlns:inkscape="http://www.inkscape.org/namespaces/inkscape"
   xmlns:sodipodi="http://sodipodi.sourceforge.net/DTD/sodipodi-0.dtd"
   xmlns="http://www.w3.org/2000/svg"
   xmlns:svg="http://www.w3.org/2000/svg">
  <defs
     id="defs6">
    <clipPath
       clipPathUnits="userSpaceOnUse"
       id="clipPath16">
      <path
         d="M 0,164.251 H 501.696 V 0 H 0 Z"
         id="path14" />
    </clipPath>
  </defs>
  <sodipodi:namedview
     id="namedview4"
     pagecolor="#ffffff"
     bordercolor="#000000"
     borderopacity="0.25"
     inkscape:showpageshadow="2"
     inkscape:pageopacity="0.0"
     inkscape:pagecheckerboard="0"
     inkscape:deskcolor="#d1d1d1" />
  <g
     id="g8"
     inkscape:groupmode="layer"
     inkscape:label="University of Amherst Logo"
     transform="matrix(1.3333333,0,0,-1.3333333,0,219.00133)">
    <g
       id="g10">
      <g
         id="g12"
         clip-path="url(#clipPath16)">
        <g
           id="g18"
           transform="translate(252.4713,145.4987)">
          <path
             d="m 0,0 c -6.474,-0.433 -8.956,-1.942 -9.496,-6.367 -0.324,-2.912 -0.541,-7.553 -0.541,-17.481 v -8.848 c 0,-12.733 -1.942,-21.905 -8.199,-28.487 -4.964,-5.18 -12.194,-7.445 -19.316,-7.445 -6.258,0 -12.517,1.509 -17.265,5.179 -6.474,4.964 -9.496,13.056 -9.496,25.681 v 26.87 c 0,9.712 -0.863,10.143 -9.387,10.898 v 3.021 h 27.947 V 0 c -8.524,-0.54 -9.387,-1.186 -9.387,-10.898 v -24.495 c 0,-17.373 6.906,-27.301 20.286,-27.301 15.539,0 20.394,12.949 20.394,30.753 v 8.093 c 0,9.928 -0.323,14.46 -0.756,17.806 -0.647,4.207 -2.913,5.502 -10.466,6.042 V 3.021 L 0,3.021 Z"
             style="fill:#231f20;fill-opacity:1;fill-rule:nonzero;stroke:none"
             id="path20" />
        </g>
        <g
           id="g22"
           transform="translate(313.9401,78.3801)">
          <path
             d="M 0,0 V 3.021 C 8.74,3.885 9.172,4.424 9.063,15.863 L 8.74,59.889 H 8.309 L -18.021,0.756 h -2.159 l -24.172,57.622 h -0.214 l -1.62,-30.754 c -0.431,-8.848 -0.431,-13.595 -0.322,-17.913 0.215,-5.178 2.805,-5.934 9.926,-6.69 V 0 h -25.141 v 3.021 c 6.258,0.756 8.416,1.942 9.172,6.476 0.539,3.776 1.188,8.524 2.049,19.746 l 1.51,22.444 c 0.972,14.029 0.433,14.46 -9.387,15.432 v 3.021 h 17.697 L -16.078,16.186 8.848,70.14 H 27.193 V 67.119 C 17.695,66.255 16.939,66.039 17.266,54.924 L 18.344,15.863 C 18.668,4.424 18.99,3.885 28.379,3.021 V 0 Z"
             style="fill:#231f20;fill-opacity:1;fill-rule:nonzero;stroke:none"
             id="path24" />
        </g>
        <g
           id="g26"
           transform="translate(375.4049,136.111)">
          <path
             d="M 0,0 H -0.215 C -3.668,-9.279 -7.121,-18.669 -10.359,-27.516 H 9.496 Z m 10.574,-57.731 v 3.022 c 6.801,0.863 7.772,1.727 6.367,5.935 -1.402,4.209 -3.56,10.035 -5.933,16.618 h -22.985 c -1.726,-4.857 -3.345,-9.389 -4.748,-13.921 -2.375,-6.798 -1.402,-7.877 6.692,-8.632 v -3.022 h -23.418 v 3.022 c 6.799,0.972 8.31,1.619 12.088,11.114 l 22.336,56.652 3.345,0.97 c 6.69,-18.559 13.918,-39.062 20.825,-57.836 3.453,-9.281 4.855,-10.252 11.871,-10.9 v -3.022 z"
             style="fill:#231f20;fill-opacity:1;fill-rule:nonzero;stroke:none"
             id="path28" />
        </g>
        <g
           id="g30"
           transform="translate(449.2838,132.1188)">
          <path
             d="m 0,0 c -1.943,6.905 -4.748,14.351 -14.135,14.351 -8.31,0 -11.978,-6.043 -11.978,-11.87 0,-7.877 5.179,-11.545 13.703,-15.97 8.418,-4.317 18.67,-9.388 18.67,-21.474 0,-11.329 -9.606,-20.395 -23.957,-20.395 -4.424,0 -7.877,0.865 -10.574,1.619 -2.698,0.973 -4.317,1.727 -5.288,2.266 -0.863,2.267 -2.265,11.547 -2.914,16.726 l 3.129,0.756 c 1.727,-6.582 6.582,-17.482 17.698,-17.482 8.093,0 12.949,5.073 12.949,12.95 0,7.985 -5.936,11.762 -14.028,16.078 -6.906,3.669 -17.804,9.064 -17.804,21.257 0,10.36 8.308,19.208 22.226,19.208 4.965,0 9.498,-1.188 13.598,-2.482 C 1.727,11.653 2.266,7.445 3.129,0.647 Z"
             style="fill:#231f20;fill-opacity:1;fill-rule:nonzero;stroke:none"
             id="path32" />
        </g>
        <g
           id="g34"
           transform="translate(494.6744,132.1188)">
          <path
             d="m 0,0 c -1.943,6.905 -4.75,14.351 -14.137,14.351 -8.31,0 -11.978,-6.043 -11.978,-11.87 0,-7.877 5.179,-11.545 13.705,-15.97 8.416,-4.317 18.668,-9.388 18.668,-21.474 0,-11.329 -9.604,-20.395 -23.955,-20.395 -4.424,0 -7.877,0.865 -10.574,1.619 -2.7,0.973 -4.319,1.727 -5.288,2.266 -0.865,2.267 -2.267,11.547 -2.916,16.726 l 3.131,0.756 c 1.725,-6.582 6.582,-17.482 17.698,-17.482 8.091,0 12.947,5.073 12.947,12.95 0,7.985 -5.936,11.762 -14.028,16.078 -6.906,3.669 -17.804,9.064 -17.804,21.257 0,10.36 8.308,19.208 22.228,19.208 4.963,0 9.496,-1.188 13.596,-2.482 C 1.725,11.653 2.266,7.445 3.127,0.647 Z"
             style="fill:#231f20;fill-opacity:1;fill-rule:nonzero;stroke:none"
             id="path36" />
        </g>
        <g
           id="g38"
           transform="translate(206.547,58.1711)">
          <path
             d="m 0,0 h -0.147 c -2.342,-6.297 -4.685,-12.666 -6.881,-18.668 h 13.47 z m 7.174,-39.166 v 2.051 c 4.612,0.584 5.271,1.17 4.319,4.025 -0.951,2.856 -2.415,6.809 -4.026,11.274 H -8.126 c -1.171,-3.293 -2.269,-6.37 -3.221,-9.444 -1.611,-4.611 -0.951,-5.344 4.539,-5.855 v -2.051 h -15.886 v 2.051 c 4.612,0.658 5.637,1.097 8.199,7.539 L 0.658,8.857 2.929,9.516 c 4.538,-12.592 9.443,-26.5 14.128,-39.239 2.342,-6.295 3.295,-6.955 8.053,-7.392 v -2.051 z"
             style="fill:#a20b31;fill-opacity:1;fill-rule:nonzero;stroke:none"
             id="path40" />
        </g>
        <g
           id="g42"
           transform="translate(273.0729,19.0051)">
          <path
             d="M 0,0 V 2.051 C 5.93,2.635 6.223,3 6.148,10.76 L 5.93,40.629 H 5.635 L -12.225,0.514 h -1.465 l -16.397,39.091 h -0.147 l -1.1,-20.865 c -0.291,-6.002 -0.291,-9.222 -0.218,-12.152 0.146,-3.514 1.904,-4.025 6.734,-4.537 V 0 h -17.057 v 2.051 c 4.246,0.512 5.711,1.316 6.223,4.39 0.365,2.563 0.806,5.786 1.39,13.397 l 1.026,15.226 c 0.658,9.518 0.293,9.811 -6.37,10.469 v 2.051 h 12.007 L -10.908,10.98 6.004,47.584 h 12.443 v -2.051 c -6.441,-0.586 -6.955,-0.73 -6.734,-8.271 L 12.445,10.76 C 12.664,3 12.883,2.635 19.254,2.051 V 0 Z"
             style="fill:#a20b31;fill-opacity:1;fill-rule:nonzero;stroke:none"
             id="path44" />
        </g>
        <g
           id="g46"
           transform="translate(345.6764,64.5383)">
          <path
             d="m 0,0 c -6.004,-0.51 -6.59,-0.877 -6.59,-6.953 v -29.576 c 0,-6.149 0.586,-6.516 6.518,-6.953 v -2.051 h -19.619 v 2.051 c 6.222,0.437 6.88,0.804 6.88,6.953 v 14.64 h -24.964 v -14.64 c 0,-6.076 0.586,-6.516 6.589,-6.953 v -2.051 h -19.253 v 2.051 c 5.857,0.437 6.441,0.804 6.441,6.953 v 29.576 c 0,6.148 -0.584,6.443 -6.588,6.953 v 2.051 h 18.961 V 0 c -5.564,-0.51 -6.15,-0.877 -6.15,-6.953 v -11.859 h 24.964 v 11.859 c 0,6.076 -0.585,6.443 -6.296,6.953 V 2.051 L 0,2.051 Z"
             style="fill:#a20b31;fill-opacity:1;fill-rule:nonzero;stroke:none"
             id="path48" />
        </g>
        <g
           id="g50"
           transform="translate(386.149,30.5715)">
          <path
             d="m 0,0 c -0.439,-2.414 -1.902,-9.297 -2.563,-11.566 h -35.285 v 2.05 c 6.662,0.512 7.248,1.098 7.248,7.028 v 29.134 c 0,6.59 -0.586,6.811 -6.296,7.321 v 2.051 h 32.65 c 0,-1.83 0.365,-6.807 0.586,-10.541 l -2.123,-0.368 c -0.658,3.077 -1.391,4.686 -2.342,6.297 -1.025,1.537 -3.002,2.051 -8.273,2.051 h -5.565 c -2.267,0 -2.414,-0.148 -2.414,-2.344 V 14.496 h 6.881 c 6.59,0 6.955,0.584 7.906,5.49 h 2.123 V 5.93 H -9.59 c -0.951,5.271 -1.465,5.711 -7.834,5.711 h -6.953 V -2.195 c 0,-3.442 0.438,-4.979 1.756,-5.93 1.391,-0.879 3.953,-0.953 7.613,-0.953 5.565,0 7.613,0.586 9.225,2.49 1.244,1.463 2.635,3.953 3.586,6.881 z"
             style="fill:#a20b31;fill-opacity:1;fill-rule:nonzero;stroke:none"
             id="path52" />
        </g>
        <g
           id="g54"
           transform="translate(403.0397,42.2121)">
          <path
             d="m 0,0 c 3.734,0 6.15,0.584 7.978,2.049 2.856,2.197 4.028,5.125 4.028,9.078 0,7.906 -5.197,10.834 -10.762,10.834 -2.123,0 -3.367,-0.293 -3.953,-0.732 -0.512,-0.366 -0.807,-1.245 -0.807,-3.221 V 0 Z m 26.941,-23.793 c -0.879,0 -1.683,0 -2.564,0.072 -5.488,0.293 -8.564,1.905 -11.859,6.662 -2.563,3.588 -5.196,8.127 -7.393,11.713 -1.244,2.051 -2.488,2.93 -6.297,2.93 h -2.344 v -11.639 c 0,-6.224 0.661,-6.664 6.518,-7.101 v -2.051 h -19.254 v 2.051 c 6.004,0.437 6.662,0.877 6.662,7.101 v 29.428 c 0,6.223 -0.586,6.443 -6.297,6.953 v 2.051 H 2.27 c 5.343,0 8.931,-0.658 11.712,-2.488 2.928,-1.905 4.832,-5.198 4.832,-9.59 0,-6.297 -3.879,-10.178 -9.296,-12.52 1.244,-2.416 4.318,-7.32 6.513,-10.615 2.637,-3.807 4.1,-5.709 5.93,-7.611 1.978,-2.198 3.662,-3.002 5.271,-3.444 z"
             style="fill:#a20b31;fill-opacity:1;fill-rule:nonzero;stroke:none"
             id="path56" />
        </g>
        <g
           id="g58"
           transform="translate(455.151,55.4621)">
          <path
             d="m 0,0 c -1.316,4.686 -3.221,9.736 -9.59,9.736 -5.637,0 -8.125,-4.099 -8.125,-8.052 0,-5.344 3.514,-7.834 9.297,-10.834 5.711,-2.928 12.664,-6.371 12.664,-14.569 0,-7.687 -6.516,-13.836 -16.252,-13.836 -3,0 -5.344,0.584 -7.174,1.098 -1.83,0.658 -2.927,1.17 -3.588,1.537 -0.584,1.537 -1.537,7.834 -1.976,11.348 l 2.125,0.511 c 1.17,-4.464 4.465,-11.859 12.004,-11.859 5.49,0 8.785,3.441 8.785,8.785 0,5.418 -4.025,7.979 -9.516,10.908 -4.685,2.489 -12.08,6.149 -12.08,14.42 0,7.03 5.637,13.032 15.08,13.032 3.367,0 6.444,-0.805 9.225,-1.682 C 1.172,7.906 1.537,5.051 2.123,0.439 Z"
             style="fill:#a20b31;fill-opacity:1;fill-rule:nonzero;stroke:none"
             id="path60" />
        </g>
        <g
           id="g62"
           transform="translate(499.5729,55.2414)">
          <path
             d="m 0,0 c -0.807,3.516 -1.465,5.344 -2.344,6.516 -1.172,1.757 -2.414,2.271 -7.906,2.271 h -5.197 v -36.019 c 0,-5.784 0.586,-6.516 7.541,-6.954 v -2.05 h -21.012 v 2.05 c 6.662,0.438 7.248,1.17 7.248,6.954 V 8.787 h -4.537 c -6.078,0 -7.541,-0.588 -8.494,-2.271 C -35.578,5.271 -36.164,3.223 -37.043,0 h -2.123 c 0.365,4.393 0.732,9.152 0.877,13.178 h 1.465 c 1.025,-1.684 1.978,-1.83 4.027,-1.83 h 28.916 c 1.977,0 2.563,0.439 3.734,1.83 h 1.538 c 0,-3.367 0.365,-8.711 0.732,-12.957 z"
             style="fill:#a20b31;fill-opacity:1;fill-rule:nonzero;stroke:none"
             id="path64" />
        </g>
        <g
           id="g66"
           transform="translate(161.4879,67.7199)">
          <path
             d="m 0,0 -2.971,0.198 0.049,0.694 c 0.743,0 1.436,0.147 1.932,0.743 0.544,0.544 0.544,1.286 0.643,2.029 L -0.643,3.912 -8.617,4.803 C -9.013,4.853 -9.31,4.506 -9.458,4.209 l -0.149,-0.792 -0.545,0.05 c 0.297,1.832 0.495,3.714 0.694,5.596 l 0.544,-0.1 C -8.963,8.369 -9.063,7.627 -8.418,7.378 -5.695,6.884 -2.922,6.587 -0.198,6.389 0.198,7.031 0.347,8.121 -0.1,8.814 -0.495,9.409 -1.189,9.656 -1.783,9.903 l 0.05,0.645 2.971,-0.445 z m -3.566,-13.173 -2.871,0.743 0.197,0.694 c 0.991,-0.2 2.031,0.05 2.575,0.99 0.099,0.495 0.644,1.089 0.248,1.585 l -7.874,2.327 c -0.495,0.05 -0.841,-0.495 -0.99,-0.892 l -0.149,-0.396 c -0.149,0.1 -0.396,0.1 -0.495,0.249 l 1.634,5.298 0.496,-0.15 c -0.051,-0.394 -0.348,-1.039 0,-1.434 l 0.743,-0.446 7.427,-2.229 c 0.446,0.644 0.892,1.535 0.545,2.377 -0.297,0.644 -0.941,1.039 -1.486,1.387 l 0.149,0.594 2.872,-0.942 z m -2.772,-6.884 c -0.348,-0.494 -0.843,-0.94 -1.338,-1.187 l 0.446,-0.446 -0.297,-0.595 -2.575,1.09 c -0.05,1.09 0.941,0.248 1.485,0.594 0.941,0.1 1.833,0.842 2.08,1.733 0.1,0.446 0.05,0.991 -0.297,1.387 -0.347,0.396 -0.892,0.495 -1.436,0.346 -1.882,-0.99 -3.268,-3.565 -5.794,-2.872 -1.089,0.297 -2.129,1.388 -2.228,2.526 -0.149,1.485 0.297,2.773 1.337,3.763 0.346,0.347 0.743,0.594 1.188,0.743 l -0.644,0.594 0.297,0.645 2.971,-1.437 -0.297,-0.545 c -1.188,0.198 -2.475,0.15 -3.317,-0.792 -0.396,-0.545 -0.743,-1.139 -0.595,-1.881 0.05,-0.545 0.446,-0.941 0.941,-1.189 2.279,-0.645 3.318,2.575 5.398,2.724 1.287,0.148 2.476,-0.446 3.12,-1.535 0.594,-1.189 0.248,-2.674 -0.445,-3.666 m -11.886,-16.588 c -0.445,-1.189 -1.634,-2.377 -2.971,-2.526 -0.397,0.05 -0.891,0.198 -1.04,0.692 -0.1,0.347 0.049,0.744 0.346,0.992 0.942,0.693 2.428,-0.942 2.923,0.693 0.247,0.94 -0.495,1.684 -1.14,2.377 -0.594,0.495 -1.238,1.089 -2.08,0.989 -0.297,-0.097 -0.594,-0.344 -0.692,-0.691 -0.1,-0.546 0.594,-1.388 -0.297,-1.585 -1.091,0.297 -0.149,1.485 -0.347,2.327 0,1.09 -0.545,2.08 -1.536,2.624 -0.445,0.198 -1.089,0.248 -1.485,-0.099 -0.396,-0.296 -0.396,-0.891 -0.297,-1.336 0.099,-0.298 0.346,-0.644 0.693,-0.744 0.396,-0.098 0.644,0.199 0.743,0.545 0,0.1 0.049,0.149 0.149,0.199 0.247,-0.099 0.445,-0.347 0.495,-0.595 0.049,-0.495 0,-0.989 -0.397,-1.336 -0.346,-0.397 -0.941,-0.496 -1.436,-0.249 -0.792,0.446 -1.089,1.338 -0.99,2.18 0.148,1.288 0.891,2.526 2.08,3.07 0.792,0.347 1.832,0.197 2.377,-0.544 0.842,-0.942 0.396,-2.428 0.148,-3.467 0.595,0.941 1.634,1.633 2.823,1.486 0.792,-0.1 1.436,-0.694 1.882,-1.338 0.643,-1.04 0.544,-2.576 0.049,-3.664 m -6.437,-6.388 c -0.297,-1.238 -1.486,-2.378 -2.774,-2.527 -2.773,-0.098 -5.001,2.626 -5.992,4.903 -0.545,1.139 -0.494,2.773 0.298,3.813 0.594,0.843 1.386,1.437 2.376,1.535 0.446,0 0.892,-0.198 1.09,-0.644 0.148,-0.297 0.049,-0.643 -0.148,-0.891 -0.991,-1.138 -2.229,1.189 -2.922,-0.495 -0.05,-1.387 1.04,-2.426 1.832,-3.466 0.148,0.742 0.495,1.435 1.189,1.881 0.891,0.695 2.228,0.695 3.119,0.149 1.535,-0.941 2.278,-2.575 1.932,-4.258 m -7.428,-5.547 c -0.199,-1.337 -1.338,-2.525 -2.526,-3.021 -0.891,-0.396 -2.229,-0.544 -3.12,0.099 -0.595,0.445 -0.891,1.089 -0.891,1.783 -0.05,0.792 0.296,1.437 0.643,2.079 -1.287,-0.048 -2.525,0.347 -3.169,1.536 -0.594,0.941 -0.346,2.328 0.297,3.17 1.09,1.386 3.269,2.327 4.754,0.941 0.396,-0.446 0.644,-0.991 0.495,-1.635 -0.049,-0.496 -0.198,-0.94 -0.445,-1.337 1.287,0.05 2.575,-0.248 3.367,-1.338 0.446,-0.643 0.743,-1.435 0.595,-2.277 m -12.628,-8.766 -0.298,0.447 c 0.348,0.248 0.892,0.445 0.942,0.94 l -0.347,1.041 -3.17,5.893 c -0.247,0.445 -0.792,0.197 -1.089,0.098 l -0.495,-0.248 -0.247,0.496 c 0.989,0.644 1.93,1.585 2.723,2.476 l 4.408,-8.171 c 0.247,-0.496 0.841,-0.594 1.237,-0.396 l 0.495,0.248 0.198,-0.446 z m -14.708,8.37 c -8.022,-2.674 -17.233,-3.516 -26.345,-2.674 -6.785,0.693 -13.173,2.425 -19.165,4.951 -1.04,0.396 -2.129,0.743 -3.07,1.388 -6.289,2.722 -11.836,6.684 -16.837,11.29 -1.288,1.238 -2.823,2.822 -4.16,4.16 -2.278,2.675 -4.308,5.447 -6.189,8.419 -5.151,8.269 -8.865,17.975 -10.103,28.573 -2.724,25.553 8.468,46.847 26.048,60.366 14.955,11.884 37.19,16.936 57.642,11.489 12.727,-3.319 23.721,-10.301 32.189,-19.462 2.525,-2.724 4.605,-5.348 6.685,-8.468 7.874,-11.935 12.281,-27.583 10.3,-43.777 -1.535,-13.023 -6.438,-23.819 -13.569,-33.426 -3.169,-4.061 -6.487,-7.478 -10.399,-10.597 l -0.148,-0.248 c -6.835,-5.398 -14.263,-9.408 -22.879,-11.984 m -1.535,-6.438 c -0.198,0.644 -0.693,1.338 -1.337,1.635 -0.693,0.297 -1.486,0.098 -2.13,-0.05 -0.346,-0.347 0,-0.792 0,-1.189 l 1.437,-7.082 c 0.198,-0.346 0.544,-0.643 0.99,-0.545 l 0.644,0.1 0.148,-0.545 -5.546,-1.089 -0.099,0.544 c 0.495,0.1 1.089,0.199 1.337,0.743 v 0.842 l -1.485,7.478 c -0.496,0.248 -1.04,0 -1.536,-0.049 -0.594,-0.149 -1.139,-0.743 -1.238,-1.338 l -0.099,-1.139 -0.693,-0.198 -0.446,2.972 10.003,1.98 0.694,-2.921 z m -13.024,-9.261 c -1.09,-0.593 -2.625,-0.692 -3.763,-0.247 l -1.041,0.644 c -0.148,-0.1 -0.148,-0.495 -0.247,-0.792 -0.198,-0.05 -0.446,-0.05 -0.693,-0.05 l -0.1,3.317 h 0.644 c 0.297,-1.138 1.139,-2.525 2.427,-2.673 0.693,-0.099 1.386,0.049 1.882,0.495 0.445,0.446 0.544,1.04 0.396,1.634 -1.139,2.179 -4.259,1.387 -5.2,3.912 -0.248,0.99 -0.198,2.179 0.495,2.971 0.991,1.04 2.377,1.238 3.813,0.99 0.396,-0.147 0.842,-0.247 1.189,-0.593 l 0.198,0.593 0.643,0.05 0.199,-2.872 h -0.644 c -0.247,0.941 -1.041,1.982 -2.03,2.179 -0.694,0.05 -1.436,0.05 -1.882,-0.494 -0.297,-0.348 -0.397,-0.843 -0.248,-1.239 0.793,-1.486 2.575,-1.386 3.813,-2.228 1.04,-0.545 1.783,-1.585 1.734,-2.725 0.049,-1.237 -0.545,-2.276 -1.585,-2.872 m -8.419,-0.544 -3.119,0.346 c -1.041,1.685 -1.585,3.665 -3.17,5.102 -0.099,0 -0.446,0.148 -0.446,-0.1 -0.05,-1.237 -0.445,-2.476 -0.148,-3.664 0.297,-0.347 0.743,-0.397 1.188,-0.496 0,-0.148 -0.049,-0.297 -0.049,-0.494 -1.733,0.247 -3.566,0.446 -5.348,0.643 v 0.494 c 0.445,-0.048 1.039,-0.048 1.386,0.348 l 0.248,0.644 0.891,7.329 c 0,0.446 -0.346,0.841 -0.743,0.94 l -0.594,0.1 0.05,0.545 c 2.575,-0.645 5.595,-0.199 7.923,-1.388 0.693,-0.395 1.089,-1.089 1.139,-1.832 0.149,-1.088 -0.396,-2.029 -1.337,-2.476 -0.445,-0.197 -0.891,-0.346 -1.386,-0.346 l 2.773,-4.655 0.841,-0.545 z m -12.677,9.508 c -0.941,-0.1 -0.396,0.841 -0.644,1.337 -0.396,1.386 -1.931,1.684 -3.119,1.882 l -0.248,-0.247 -1.04,-3.418 c 0.495,-0.247 1.188,-0.346 1.782,-0.148 0.397,0.247 0.644,0.694 0.842,1.088 l 0.545,-0.147 -1.238,-4.011 -0.545,0.197 c 0,0.645 0.1,1.338 -0.396,1.733 -0.346,0.299 -0.793,0.397 -1.188,0.546 -0.297,-1.238 -1.09,-2.427 -0.842,-3.814 0.594,-0.841 1.634,-1.04 2.674,-1.09 0.941,-0.049 1.634,0.843 2.08,1.585 l 0.594,-0.147 c -0.346,-0.942 -0.693,-1.882 -0.891,-2.923 l -8.815,2.724 0.099,0.496 c 0.396,-0.05 0.991,-0.297 1.387,0.05 l 0.445,0.742 2.08,7.031 c 0.099,0.495 -0.297,0.842 -0.644,1.041 l -0.495,0.147 0.149,0.546 c 2.674,-0.991 5.497,-1.684 8.171,-2.525 z m -13.52,-3.07 0.545,-0.297 -0.247,-0.446 -4.903,2.328 0.248,0.445 c 0.396,-0.148 1.089,-0.445 1.535,0 0.743,1.04 1.189,2.179 1.734,3.318 l -4.21,2.079 c -0.545,-1.237 -1.337,-2.327 -1.535,-3.713 -0.049,-0.694 1.436,-0.644 0.743,-1.337 l -4.853,2.328 0.198,0.444 c 0.396,-0.098 1.089,-0.444 1.486,0 1.386,2.278 2.426,4.705 3.565,7.132 0.149,0.396 -0.05,0.842 -0.396,1.089 l -0.496,0.297 0.199,0.446 c 1.585,-0.792 3.219,-1.585 4.853,-2.328 l -0.198,-0.494 c -0.397,0.148 -1.04,0.494 -1.436,0.099 -0.842,-0.991 -1.189,-2.179 -1.783,-3.269 l 4.209,-2.03 c 0.544,1.139 1.287,2.179 1.486,3.515 -0.05,0.446 -0.595,0.743 -0.942,0.942 l 0.198,0.445 4.854,-2.327 -0.149,-0.495 c -0.446,0.148 -1.139,0.495 -1.535,0.049 -1.337,-2.328 -2.426,-4.753 -3.565,-7.131 -0.149,-0.445 0.05,-0.841 0.395,-1.089 m -14.261,6.636 c -1.387,1.138 -2.773,2.327 -4.21,3.416 0.1,0.1 0.199,0.248 0.347,0.347 0.396,-0.149 0.941,-0.545 1.486,-0.247 1.634,1.584 2.872,3.416 4.308,5.1 -2.476,-1.287 -5.002,-2.774 -7.478,-4.111 l -0.594,0.447 c 0.842,2.773 1.634,5.547 2.477,8.319 -1.338,-1.584 -2.774,-3.219 -3.962,-4.952 -0.248,-0.346 -0.248,-0.892 0,-1.288 l 0.396,-0.494 -0.347,-0.397 c -0.941,0.792 -1.882,1.634 -2.872,2.327 0.248,1.139 1.089,-0.446 1.783,0.149 1.931,1.93 3.417,4.11 5.15,6.14 0.049,0.645 -0.297,1.09 -0.694,1.486 l 0.298,0.396 2.872,-2.327 -2.229,-7.676 6.933,3.911 c 0.941,-0.89 1.931,-1.632 2.922,-2.376 l -0.297,-0.396 c -0.396,0.199 -0.842,0.644 -1.386,0.396 l -0.843,-0.793 -4.209,-5.249 c -0.198,-0.296 -0.247,-0.743 -0.049,-1.04 0.198,-0.395 0.792,-0.693 0.198,-1.088 m -11.935,10.102 -3.565,3.961 c 0.149,0.149 0.297,0.198 0.396,0.347 0.396,-0.297 0.792,-0.792 1.288,-0.594 0.594,0.544 0.842,1.287 1.188,1.931 l -2.377,2.576 c -0.694,-0.297 -1.535,-0.397 -1.981,-1.091 -0.396,-0.692 1.139,-1.188 0.05,-1.634 -0.793,0.99 -1.585,1.932 -2.526,2.822 l 0.446,0.397 c 1.089,-1.089 2.526,-0.1 3.665,0.199 l 7.328,2.574 0.545,-0.545 -4.407,-9.111 c -0.248,-0.545 0.099,-1.04 0.396,-1.485 z m -14.361,20.551 c -0.396,-0.198 -0.545,-0.594 -0.445,-0.99 l 0.198,-0.694 -0.495,-0.197 -2.229,4.951 0.445,0.197 c 0.248,-0.296 0.496,-0.94 0.991,-0.99 l 0.793,0.1 5.199,2.377 c 0.545,0.347 1.139,0.842 1.238,1.485 0.099,1.387 -0.445,2.625 -1.585,3.467 -0.544,0.396 -1.386,0.446 -2.079,0.247 -1.832,-0.891 -3.863,-1.436 -5.497,-2.723 -0.644,-0.496 0.396,-1.585 -0.594,-1.634 l -1.536,3.417 0.496,0.198 c 0.197,-0.347 0.544,-0.743 0.94,-0.792 l 0.892,0.049 c 2.823,0.841 6.983,4.555 9.359,0.446 0.793,-1.536 1.833,-3.912 0.397,-5.497 -1.932,-1.734 -4.358,-2.179 -6.488,-3.417 m -6.685,12.578 c -0.149,1.139 -0.396,2.179 -0.693,3.269 1.931,2.526 3.764,5.051 5.744,7.577 l -0.099,0.048 -5.298,-1.238 c -0.397,-0.148 -0.793,-0.594 -0.842,-0.99 l 0.049,-0.645 -0.545,-0.097 c -0.247,1.188 -0.396,2.426 -0.742,3.614 0.891,0.595 0.544,-0.989 1.436,-0.94 l 1.287,0.098 c 2.674,0.545 5.348,1.091 8.023,1.685 l 0.148,-0.743 -6.487,-8.765 5.992,1.337 c 0.495,0.148 0.941,0.643 0.941,1.139 v 0.544 l 0.544,0.099 c 0.199,-1.237 0.446,-2.426 0.793,-3.615 -0.198,-0.099 -0.396,-0.099 -0.594,-0.099 -0.1,0.396 -0.348,0.941 -0.842,1.039 h -0.991 l -6.537,-1.385 c -0.544,-0.497 -0.891,-1.04 -0.742,-1.784 z m -2.773,14.707 c 0,1.784 -0.198,3.467 -0.347,5.2 0.099,0.051 0.347,0.051 0.545,0.051 0,-0.496 0.149,-1.041 0.644,-1.288 2.723,0 5.447,0.197 8.121,0.494 0.297,0.149 0.545,0.396 0.594,0.743 l 0.05,0.743 c 0.148,0 0.346,0 0.545,0.049 0.049,-1.832 0.148,-3.614 0.346,-5.396 l -0.545,-0.05 c -0.049,0.495 -0.099,1.089 -0.643,1.288 l -0.991,0.098 -6.933,-0.544 c -0.347,-0.1 -0.742,-0.297 -0.792,-0.694 l -0.05,-0.792 c -0.148,0 -0.544,-0.149 -0.544,0.098 m -0.198,12.926 h 0.545 c 0,-0.545 -0.05,-1.139 0.445,-1.338 1.585,0.05 3.07,0.743 4.655,1.09 0.693,0.248 1.387,0.396 2.08,0.693 -2.08,0.842 -3.962,2.18 -6.24,2.625 -0.643,-0.1 -0.693,-0.793 -0.792,-1.287 l -0.545,0.049 0.248,3.962 0.495,-0.05 c 0.05,-0.594 0.346,-1.238 0.941,-1.585 l 8.864,-4.457 -0.049,-0.693 -9.805,-3.168 c -0.793,-0.249 -0.199,-1.585 -1.189,-1.289 z m 2.476,16.292 2.723,-0.445 -0.148,-0.645 c -0.694,-0.048 -1.437,-0.098 -1.932,-0.743 -0.544,-0.791 -0.792,-1.782 -0.742,-2.822 1.189,-0.347 2.476,-0.545 3.714,-0.842 0.247,0.495 0.198,1.139 0.049,1.684 -0.247,0.446 -0.742,0.694 -1.188,0.793 l 0.099,0.594 c 1.337,-0.297 2.674,-0.644 4.06,-0.843 l -0.099,-0.594 c -0.643,-0.049 -1.287,0 -1.683,-0.495 -0.297,-0.396 -0.347,-0.842 -0.495,-1.287 1.287,-0.248 2.575,-0.792 3.862,-0.495 0.842,0.742 0.941,1.882 0.842,2.921 -0.05,0.892 -1.089,1.436 -1.733,1.783 l 0.099,0.594 2.971,-0.644 c -0.595,-3.02 -1.436,-5.942 -1.881,-9.012 l -0.545,0.049 c 0.049,0.347 0.198,0.991 -0.099,1.288 l -0.545,0.346 -7.478,1.585 c -0.446,0.05 -0.842,-0.346 -0.99,-0.693 -0.1,-0.199 -0.05,-0.397 -0.148,-0.546 -0.149,0.1 -0.496,-0.048 -0.496,0.249 0.743,2.674 1.238,5.447 1.783,8.22 m 4.358,11.094 c 0.891,1.137 2.723,1.039 3.664,0.098 0.594,-0.743 0.842,-1.733 0.594,-2.675 l 5.398,1.585 c 0.347,0.248 0.545,0.743 1.04,0.347 -0.445,-0.94 -0.891,-1.882 -1.188,-2.922 -1.932,-0.594 -4.062,-0.594 -5.795,-1.783 l -0.098,-0.297 3.02,-1.188 c 0.496,-0.149 0.991,0.198 1.189,0.644 l 0.148,0.346 0.495,-0.148 c -0.643,-1.684 -1.386,-3.318 -1.98,-5.052 l -0.545,0.199 c 0.198,0.396 0.396,0.94 0.099,1.386 l -0.842,0.545 -6.586,2.624 c -0.545,0.149 -1.04,-0.247 -1.238,-0.693 l -0.099,-0.347 -0.544,0.199 c 1.237,2.327 1.584,5.001 3.268,7.132 m 4.209,9.061 c 0.445,0.594 1.04,1.189 1.733,1.337 l -0.446,0.496 0.347,0.593 2.476,-1.386 -0.297,-0.594 c -1.09,0.396 -2.328,0.198 -3.12,-0.693 -0.396,-0.446 -0.545,-1.09 -0.445,-1.685 0.148,-0.494 0.644,-0.742 1.039,-0.89 1.635,0.049 2.674,1.634 4.111,2.179 0.99,0.544 2.376,0.296 3.268,-0.347 1.04,-0.792 1.337,-1.981 1.139,-3.269 -0.297,-1.386 -1.436,-2.971 -2.922,-3.268 l 0.595,-0.644 -0.298,-0.545 c -0.99,0.446 -1.931,1.09 -2.872,1.684 0.248,0.99 1.337,0.05 2.03,0.297 0.743,0 1.338,0.297 1.882,0.842 0.446,0.496 0.694,1.09 0.594,1.783 -0.049,0.593 -0.594,1.089 -1.089,1.238 -2.179,0.347 -3.268,-2.229 -5.348,-2.278 -1.188,-0.05 -2.278,0.594 -2.873,1.633 -0.594,1.14 -0.148,2.527 0.496,3.517 m 6.735,9.558 c 0.148,-0.05 0.297,-0.198 0.445,-0.297 -0.247,-0.447 -0.643,-0.942 -0.297,-1.486 l 0.644,-0.644 5.745,-4.259 c 0.445,-0.148 0.891,0.05 1.188,0.397 0.148,0.297 0.396,0.346 0.594,0.049 l 0.099,-0.049 -3.218,-4.309 c -0.149,0.05 -0.347,0.198 -0.447,0.297 0.248,0.396 0.595,0.891 0.347,1.387 l -0.693,0.742 -5.645,4.16 c -0.248,0.198 -0.694,0.198 -0.941,0 l -0.644,-0.593 -0.396,0.296 c 1.139,1.437 2.228,2.873 3.219,4.309 m 8.814,9.458 c 0.743,-0.594 1.437,-1.337 2.18,-1.981 -0.298,-1.188 -0.941,0.15 -1.536,0.05 -1.139,0.247 -1.981,-0.396 -2.625,-1.288 l 0.05,-0.297 5.893,-5.596 c 0.297,-0.148 0.743,-0.197 1.04,0.05 l 0.594,0.495 0.397,-0.346 c -1.387,-1.289 -2.625,-2.675 -3.913,-4.012 -0.099,0.099 -0.248,0.198 -0.396,0.347 0.347,0.395 0.891,0.841 0.644,1.436 -1.832,2.08 -3.962,4.011 -5.942,5.843 -0.595,-0.049 -1.09,-0.594 -1.436,-1.089 -0.496,-0.892 0,-1.882 0.495,-2.625 l -0.447,-0.495 -2.03,2.129 c 2.229,2.477 4.655,4.903 7.032,7.379 m 6.289,4.705 0.347,-0.396 c -0.347,-0.298 -0.792,-0.743 -0.594,-1.189 1.238,-0.991 2.823,-1.486 4.209,-2.229 -0.099,1.585 -0.049,3.269 -0.693,4.656 -0.248,0.345 -0.743,0.247 -1.04,0.098 L -124,79.58 l -0.297,0.446 2.773,2.079 c 0.594,-0.346 0,-0.693 -0.099,-1.089 0.099,-2.129 0.297,-4.308 0.544,-6.388 0.694,-0.842 1.189,-1.931 2.179,-2.526 0.644,-0.297 1.189,1.089 1.536,0.05 -1.437,-1.04 -2.971,-2.08 -4.408,-3.269 l -0.346,0.447 c 0.346,0.296 0.743,0.593 0.792,1.039 -0.149,1.04 -1.04,1.783 -1.585,2.675 l -5.794,2.623 c -0.544,0.199 -1.139,-0.693 -1.336,0.248 1.436,0.892 2.773,1.932 4.109,2.972 m 13.916,6.339 c 0.891,2.326 3.318,3.713 5.645,3.961 2.13,0.149 4.11,-0.842 5.15,-2.724 0.743,-1.287 0.942,-3.169 0.298,-4.555 -0.941,-2.179 -3.17,-3.517 -5.398,-3.814 -2.179,-0.199 -4.16,0.694 -5.25,2.625 -0.693,1.287 -1.039,3.07 -0.445,4.507 m 21.442,8.17 0.644,-2.624 -0.545,-0.099 c -0.297,0.544 -0.841,1.287 -1.535,1.435 -0.99,0.198 -1.882,-0.099 -2.773,-0.297 l -0.198,-0.198 0.743,-3.862 c 0.595,0.05 1.387,0.198 1.683,0.891 l 0.199,1.238 0.544,0.099 c 0.248,-1.337 0.496,-2.724 0.842,-4.06 -0.198,-0.05 -0.396,-0.1 -0.594,-0.1 -0.149,0.446 -0.545,1.189 -1.188,1.337 -0.446,0.099 -0.891,-0.049 -1.338,-0.148 l 0.743,-3.466 c 0.049,-0.248 0.347,-0.595 0.693,-0.595 l 0.941,0.099 0.1,-0.545 c -1.783,-0.346 -3.615,-0.593 -5.398,-1.039 l -0.099,0.496 c 0.396,0.147 1.04,0.247 1.238,0.791 l -0.1,1.337 -1.386,6.636 c -0.099,0.297 -0.446,0.594 -0.743,0.594 l -0.792,-0.099 -0.1,0.545 c 2.824,0.446 5.597,1.09 8.419,1.634 m 9.161,-8.517 0.298,0.743 0.297,7.428 c -0.297,0.544 -0.891,0.693 -1.436,0.742 l -0.05,0.545 3.714,-0.099 2.872,-7.527 3.17,7.279 3.763,-0.099 v -0.544 c -0.495,0 -0.94,0 -1.237,-0.346 l -0.297,-0.695 -0.248,-6.982 c 0,-0.544 0.248,-1.139 0.842,-1.287 l 0.544,-0.099 0.05,-0.544 c -1.832,0.049 -3.565,0.247 -5.398,0.148 v 0.594 c 0.496,0.049 1.139,0.049 1.387,0.644 0.347,2.079 0.198,4.457 0.347,6.635 -1.189,-2.476 -2.279,-5.199 -3.467,-7.824 -0.298,0.149 -0.842,-0.148 -0.842,0.297 l -2.971,7.923 -0.149,-6.338 c 0,-0.446 0.297,-0.942 0.792,-1.09 l 0.545,-0.099 V 83.74 l -3.763,0.148 c -0.297,0.941 0.99,0.346 1.237,0.991 M -68.19,83.69 c 1.386,-0.247 2.179,1.239 2.922,2.179 l 4.655,6.339 0.693,-0.199 1.485,-9.904 c 0.05,-0.593 0.645,-0.94 1.14,-1.188 l -0.149,-0.495 c -1.684,0.495 -3.417,0.94 -5.151,1.287 l 0.099,0.496 c 0.397,0.049 1.239,-0.247 1.437,0.346 0.148,0.793 -0.099,1.436 -0.149,2.179 l -3.318,0.792 c -0.446,-0.545 -1.089,-1.139 -1.089,-1.98 0.049,-0.793 1.585,-0.397 0.94,-1.288 l -3.664,0.891 z m 12.875,-0.446 c 1.09,0 0.248,-1.286 0.594,-1.882 0.149,-0.643 0.397,-1.336 1.04,-1.733 0.545,-0.346 1.189,-0.594 1.932,-0.396 0.445,0.1 0.891,0.544 1.04,0.991 0.445,2.624 -3.715,3.516 -3.071,6.289 0.149,0.99 0.941,2.129 1.981,2.377 1.684,0.396 3.467,-0.248 4.358,-1.783 l 0.445,0.495 0.595,-0.248 -0.991,-2.674 -0.594,0.249 c 0.149,1.039 -0.099,2.178 -1.04,2.822 -0.495,0.297 -1.089,0.544 -1.683,0.347 -0.496,-0.1 -0.843,-0.644 -0.892,-1.09 0,-1.585 1.932,-2.427 2.675,-3.714 0.792,-0.942 0.792,-2.427 0.197,-3.467 -0.643,-1.139 -1.782,-1.634 -3.02,-1.584 -1.486,0.148 -2.972,0.891 -3.615,2.327 -0.199,-0.098 -0.397,-0.446 -0.545,-0.643 l -0.644,0.247 z m 9.36,-5.793 c 0,-1.041 0.792,-1.981 1.733,-2.378 0.544,-0.149 1.238,-0.099 1.683,0.297 0.446,0.397 0.644,0.991 0.496,1.585 -0.595,1.932 -2.972,3.219 -2.377,5.497 0.297,1.04 1.337,2.079 2.427,2.179 1.683,0.099 3.317,-0.793 3.961,-2.328 l 0.446,0.397 0.594,-0.298 -1.288,-2.525 c -0.891,0.149 -0.297,0.792 -0.446,1.386 -0.049,0.743 -0.247,1.387 -0.841,1.882 -0.446,0.397 -0.991,0.644 -1.634,0.545 -0.495,-0.049 -0.842,-0.545 -0.991,-0.99 -0.098,-1.585 1.535,-2.526 2.129,-3.863 0.446,-0.743 0.694,-1.684 0.397,-2.575 -0.297,-1.04 -1.337,-2.129 -2.476,-2.228 -1.536,-0.198 -2.773,0.346 -3.813,1.436 -0.347,0.396 -0.594,0.841 -0.743,1.337 -0.198,-0.099 -0.446,-0.397 -0.644,-0.595 l -0.594,0.347 1.584,2.872 c 1.09,-0.198 0.1,-1.287 0.397,-1.98 m 15.846,0.297 0.694,-0.446 -2.576,-9.607 c -0.197,-0.644 0.199,-1.139 0.595,-1.585 l -0.297,-0.397 c -1.387,1.041 -2.774,2.181 -4.26,3.121 0,0.197 0.199,0.297 0.298,0.446 0.396,-0.05 0.842,-0.595 1.337,-0.297 0.495,0.594 0.594,1.336 0.792,2.03 -0.842,0.792 -1.832,1.485 -2.823,2.178 -0.544,-0.445 -1.337,-0.643 -1.683,-1.386 -0.346,-0.742 1.337,-1.089 0.346,-1.635 l -3.02,2.279 0.346,0.446 c 1.189,-0.793 2.377,0.198 3.368,0.742 z m 2.823,-9.607 c 1.387,1.287 3.219,1.881 5.051,1.436 1.437,-0.297 2.774,-1.337 3.566,-2.675 0.346,-0.544 0.545,-1.189 0.594,-1.882 l 0.842,0.397 0.445,-0.446 -2.327,-2.377 -0.446,0.446 c 0.693,0.94 0.941,2.426 0.297,3.466 -0.594,0.991 -1.585,1.585 -2.673,1.436 -2.081,-0.247 -4.012,-1.98 -4.953,-3.862 -0.495,-0.941 -0.495,-2.328 0.247,-3.12 0.694,-0.891 1.685,-1.436 2.774,-1.189 0.643,0.099 1.188,0.396 1.733,0.694 l 0.446,-0.396 -2.576,-2.477 c -0.692,0.348 -0.197,0.843 0,1.288 -1.881,0.248 -3.912,2.03 -4.506,3.912 -0.643,1.932 0,4.011 1.486,5.349 m 12.875,-7.231 -0.247,0.396 0.446,0.347 2.872,-4.555 -0.495,-0.298 c -0.199,0.298 -0.496,0.792 -0.892,0.842 -1.287,-0.198 -2.277,-1.188 -3.417,-1.832 l 2.427,-3.962 c 0.99,0.545 2.08,1.139 3.02,1.932 0.298,0.297 0.198,0.791 0.05,1.139 l -0.248,0.395 0.496,0.298 c 0.792,-1.585 1.881,-3.021 2.822,-4.556 l -0.445,-0.347 c -0.199,0.347 -0.496,0.792 -0.941,0.891 l -0.842,-0.247 -6.19,-3.912 c -0.446,-0.297 -0.446,-0.842 -0.248,-1.238 l 0.248,-0.446 -0.446,-0.297 -2.872,4.605 c 0.693,0.842 0.743,-0.841 1.535,-0.594 1.238,0.347 2.278,1.288 3.417,1.882 -0.792,1.337 -1.634,2.724 -2.526,4.011 l -3.02,-1.98 c -0.397,-0.299 -0.248,-0.842 -0.1,-1.189 l 0.248,-0.396 -0.445,-0.298 -2.922,4.606 c 0.693,0.892 0.693,-0.544 1.287,-0.544 l 0.793,0.099 6.338,3.961 c 0.446,0.297 0.545,0.891 0.297,1.287 m 7.974,-13.618 -0.1,0.298 c 0.148,0.049 0.495,0.445 0.594,0.049 l 1.585,-4.259 c 0.099,-0.198 0.149,-0.396 0.248,-0.594 l -0.495,-0.248 c -0.149,0.397 -0.347,0.892 -0.842,1.04 H -6.19 c -2.129,-0.94 -4.408,-1.387 -6.289,-2.823 -0.545,-0.544 -0.595,-1.436 -0.397,-2.129 0.297,-1.039 0.991,-2.178 2.081,-2.476 0.841,-0.198 1.584,0.049 2.277,0.298 1.585,0.742 3.368,1.089 4.804,2.228 0.495,0.445 -0.396,1.486 0.594,1.486 l 1.337,-3.467 c -0.743,-0.793 -0.693,0.792 -1.485,0.693 L -4.16,37.289 c -2.724,-0.544 -5.794,-3.516 -8.518,-0.891 -1.188,1.535 -2.03,3.466 -1.485,5.497 0.693,1.633 2.476,2.178 3.961,2.724 l 3.269,1.287 c 0.544,0.247 0.644,0.842 0.496,1.386 m 5.843,-16.391 c 0.544,-1.041 0.693,-2.576 0.099,-3.615 l 0.643,-0.099 0.1,-0.645 c -0.891,-0.197 -1.833,-0.445 -2.724,-0.643 -0.693,0.842 0.594,0.792 0.891,1.387 0.694,0.694 0.942,1.782 0.545,2.674 -0.198,0.396 -0.545,0.842 -1.04,0.892 -0.545,0 -1.089,-0.199 -1.337,-0.693 -0.941,-2.031 -0.644,-5.448 -3.714,-5.745 -0.891,-0.148 -1.733,0.148 -2.377,0.693 -1.04,0.99 -1.486,2.278 -1.338,3.714 0.051,0.594 0.298,1.139 0.496,1.635 -0.248,0 -0.496,0.049 -0.793,0.049 l -0.148,0.693 3.219,0.594 c 0.05,-0.198 0.05,-0.396 0.099,-0.594 -1.09,-0.545 -2.327,-1.634 -2.229,-3.021 0.05,-0.643 0.298,-1.139 0.744,-1.585 0.395,-0.346 1.04,-0.446 1.584,-0.247 1.931,1.09 0.99,3.714 2.427,5.2 0.792,0.94 2.08,1.139 3.218,0.842 0.644,-0.248 1.387,-0.842 1.635,-1.486 m 1.188,-8.369 h 0.297 c 0,-2.922 0.149,-5.695 0.297,-8.518 l -2.773,-0.198 v 0.644 c 0.644,0.149 1.338,0.446 1.684,1.139 0.346,0.842 0.346,2.031 0.049,2.971 l -3.862,-0.099 c 0,-0.594 0.049,-1.287 0.495,-1.733 0.347,-0.346 0.792,-0.446 1.287,-0.396 v -0.644 c -1.386,0.05 -2.772,-0.05 -4.11,-0.149 l -0.049,0.644 c 0.594,0.149 1.239,0.248 1.535,0.892 0.099,0.396 0.198,0.842 0.099,1.336 -1.436,-0.297 -3.714,0.595 -4.209,-1.237 -0.1,-1.239 -0.05,-2.624 1.238,-3.219 l 1.188,-0.347 v -0.595 c -0.99,-0.098 -2.03,0.05 -2.971,-0.098 -0.247,2.971 -0.099,6.19 -0.396,9.21 l 0.544,0.05 c 0.05,-0.496 0.05,-0.94 0.446,-1.238 l 0.595,-0.198 7.626,0.297 c 0.346,0.05 0.644,0.396 0.693,0.693 0.148,0.248 -0.149,0.842 0.297,0.793 M 0.05,38.923 c -4.062,13.272 -11.39,24.761 -20.848,34.219 -4.656,4.705 -9.905,8.468 -15.551,12.034 -12.875,7.725 -28.87,11.935 -45.262,11.29 v 0.05 c -18.668,-0.842 -35.307,-7.23 -48.579,-17.728 -9.607,-7.725 -17.877,-17.729 -23.324,-29.119 -5.101,-10.449 -7.973,-22.73 -7.973,-35.506 -0.05,-11.836 2.822,-23.721 7.427,-33.873 9.112,-20.055 25.999,-35.555 47.095,-43.182 7.478,-2.724 15.55,-4.357 24.166,-4.803 0.099,0.148 0.396,0 0.495,0.099 9.459,-0.593 19.561,0.991 28.128,3.714 18.867,5.992 34.764,18.521 45.113,34.664 5.547,9.113 9.261,18.472 11.34,29.366 2.328,12.727 1.486,27.089 -2.227,38.775"
             style="fill:#231f20;fill-opacity:1;fill-rule:nonzero;stroke:none"
             id="path68" />
        </g>
        <g
           id="g70"
           transform="translate(99.6862,157.1047)">
          <path
             d="M 0,0 -2.279,-3.12 0.445,-3.763 Z"
             style="fill:#231f20;fill-opacity:1;fill-rule:nonzero;stroke:none"
             id="path72" />
        </g>
        <g
           id="g74"
           transform="translate(54.8199,146.9533)">
          <path
             d="M 0,0 C 1.139,-0.396 2.327,0 3.17,0.891 4.506,2.724 3.417,5.15 2.525,6.883 2.03,7.675 1.238,8.617 0.297,8.864 -0.792,9.111 -1.832,8.765 -2.624,8.022 -3.219,7.329 -3.368,6.437 -3.268,5.546 -2.921,3.368 -2.13,1.089 0,0"
             style="fill:#231f20;fill-opacity:1;fill-rule:nonzero;stroke:none"
             id="path76" />
        </g>
        <g
           id="g78"
           transform="translate(115.4332,86.6369)">
          <path
             d="m 0,0 c 1.139,-5.2 1.733,-10.646 1.981,-16.243 0,-0.544 0.05,-1.189 -0.297,-1.585 C 1.188,-18.273 0.545,-18.224 0,-18.57 c -2.426,-1.387 -3.516,-4.062 -4.407,-6.735 -1.981,-6.141 -3.319,-12.925 -6.933,-17.976 -2.773,-4.408 -7.23,-7.527 -12.281,-8.865 -0.495,0.05 -0.991,-0.396 -1.386,0 l 0.048,0.297 c 2.477,2.824 5.25,5.993 7.577,9.013 2.476,3.665 4.903,7.329 6.587,11.489 3.515,8.568 6.982,17.332 9.012,26.741 0.496,1.634 0.645,3.566 1.288,5.102 C -0.148,0.594 -0.099,0.149 0,0 m -56.751,-27.881 c 0.248,0 0.446,-0.247 0.496,-0.494 1.733,-4.656 4.209,-8.964 6.982,-13.124 1.287,-2.328 2.872,-4.16 4.358,-6.19 1.238,-1.436 2.575,-2.822 3.764,-4.308 -0.1,-0.545 -0.743,-0.099 -1.09,-0.149 -2.625,0.446 -4.605,1.832 -6.735,3.368 -0.446,0.199 -0.693,0.593 -1.139,0.89 -1.238,1.141 -2.427,2.478 -3.466,3.715 -2.031,3.021 -3.962,6.438 -5.299,9.954 -0.297,0.99 -0.891,2.178 -0.594,3.269 1.139,0.792 2.03,1.782 2.723,3.069 m -8.022,29.713 c 0.049,0.05 0.198,0.099 0.297,0.05 0.643,-2.476 0.792,-5.101 1.337,-7.677 0.941,-5.001 1.981,-10.002 3.665,-14.706 l -0.149,-0.199 -2.03,0.149 c -0.644,0.05 -1.287,-0.298 -1.833,0.05 -0.742,1.039 -0.89,2.376 -1.287,3.564 -0.396,2.625 -0.496,5.299 -0.594,8.123 -0.099,3.664 0.545,7.031 0.594,10.646 M 7.428,-27.039 c -0.842,-0.445 -1.634,0.05 -2.476,0.249 -0.297,-0.249 -0.297,-0.743 -0.446,-1.041 -1.188,-4.061 -2.376,-8.171 -3.862,-12.033 -1.782,-3.864 -3.021,-7.825 -5.942,-10.896 -4.111,-5.199 -9.855,-8.517 -16.442,-10.2 -1.435,-0.149 -2.673,-0.595 -4.11,-0.793 -0.842,-0.842 -1.534,-1.832 -2.822,-2.179 -3.516,-1.188 -7.577,-1.288 -10.598,0.644 -0.643,0.496 -0.99,1.09 -1.436,1.733 -1.783,0.248 -3.268,0.495 -5.002,0.792 -7.923,1.685 -13.073,8.024 -17.332,14.065 -2.377,3.912 -4.209,8.22 -5.447,12.776 -0.545,1.783 -0.495,4.457 0.99,5.794 0.298,0.397 1.139,0.445 1.238,1.04 0.05,1.288 -1.486,0.545 -2.228,0.942 -3.714,0.89 -5.002,4.851 -5.695,8.17 -0.644,3.318 -0.495,6.833 -0.594,10.35 0.149,5.397 0.396,10.746 0.347,16.243 l -0.149,0.841 -0.298,-0.05 c -0.544,-0.643 -1.386,-1.237 -2.277,-1.534 -0.346,-0.05 -0.346,0.247 -0.396,0.446 0.593,3.317 -0.446,6.387 -1.189,9.359 -0.148,0.742 -0.099,1.684 0.347,2.228 1.139,1.139 2.823,0.099 4.209,0.099 2.129,-0.545 4.407,1.09 6.042,-0.545 2.179,-1.98 2.03,-5.248 2.377,-8.171 0.445,-7.329 -0.397,-14.658 -0.644,-21.936 0.049,-4.111 0.594,-7.875 2.179,-11.243 0.198,-0.197 0.347,-0.544 0.644,-0.544 1.237,0.494 2.376,0.991 3.664,0.247 1.585,-1.138 2.426,-3.218 1.882,-5.347 -0.495,-1.238 -1.288,-2.279 -2.724,-2.527 -0.099,-0.89 0.297,-1.633 0.446,-2.525 2.377,-6.982 5.794,-13.371 11.835,-17.629 2.575,-1.783 5.497,-3.17 9.013,-3.368 0.446,0 0.99,-0.049 1.288,0.248 -1.535,1.684 -3.417,3.07 -4.755,4.902 -4.457,4.507 -7.378,10.35 -10.547,15.995 -2.823,6.488 -5.497,13.123 -7.23,20.354 -1.09,4.704 -2.179,9.261 -2.526,14.312 -0.842,5.843 -1.188,12.082 -1.535,18.223 -0.198,3.862 0.148,7.775 0.198,11.687 l 0.149,0.149 c 3.417,0.049 7.131,-0.05 10.498,-0.149 3.962,0 7.082,-0.05 11.192,-0.149 l 33.228,-0.198 c 2.823,0.05 5.992,-0.149 8.864,0.05 0.397,-0.05 0.347,-0.496 0.397,-0.793 0.099,-4.308 0.347,-8.567 0.099,-12.925 l 0.049,-0.396 C -0.446,11.786 -0.891,6.586 -1.832,0.892 -1.98,-0.842 -2.674,-2.377 -2.872,-4.11 c -0.792,-3.022 -1.485,-6.289 -2.377,-9.311 -1.089,-3.714 -2.525,-7.378 -3.961,-10.696 -1.685,-5.001 -3.913,-9.656 -6.537,-14.162 -2.873,-4.656 -5.993,-8.766 -9.806,-12.678 -0.99,-0.842 -1.882,-1.932 -2.921,-2.674 -0.05,-0.05 -0.05,-0.199 0.049,-0.248 0.198,0.049 0.347,-0.198 0.545,-0.05 2.674,0 5.2,0.893 7.527,1.883 3.912,1.585 6.983,4.407 9.508,7.873 1.684,2.427 3.071,5.249 4.11,8.171 1.387,4.259 2.378,8.815 4.061,12.926 0.891,2.376 2.774,4.357 5.596,4.456 l 0.198,0.297 c 0,3.566 -0.495,7.18 -1.04,10.647 C 1.436,-3.565 0.792,0.644 0.248,4.853 0,7.625 0.198,10.746 1.04,13.172 c 0.545,2.179 1.634,4.16 2.873,5.943 0.644,0.693 1.535,1.387 2.723,1.039 1.634,-0.693 3.466,-1.187 5.299,-1.484 1.436,-0.546 1.981,-1.834 1.931,-3.418 -0.05,-0.346 -0.247,-0.792 -0.099,-1.039 0.545,-0.199 1.486,-0.05 1.585,-0.694 C 14.114,11.686 14.51,8.665 12.034,8.022 11.043,7.774 9.954,8.072 9.013,7.874 8.666,6.636 8.963,5.2 8.963,3.913 c 0.694,-4.656 1.536,-9.36 2.18,-13.916 0.445,-3.318 0.692,-6.686 0.049,-10.054 -0.595,-2.722 -1.338,-5.595 -3.764,-6.982 m -25.305,62.248 c -0.544,0.445 -0.495,-0.396 -0.841,-0.595 -0.298,-0.247 -0.694,-0.494 -1.189,-0.494 -0.793,0 -1.535,0.743 -2.328,0.247 -0.891,-0.297 -1.832,-0.247 -2.772,-0.05 -0.694,0 -1.189,0.942 -1.833,0.249 -1.486,-0.793 -3.615,-0.398 -4.952,0.395 -0.792,-0.494 -1.931,-0.891 -2.972,-0.693 -0.742,0.099 -1.089,0.496 -1.881,0.496 -1.485,-0.496 -3.417,-0.397 -4.804,0.297 -1.584,-0.744 -4.061,-1.486 -5.546,-0.149 -0.644,0.594 -1.189,1.287 -0.991,2.327 0.149,0.595 0.446,1.139 0.991,1.436 0.891,0.595 2.278,0.348 3.219,0 0.693,0.396 1.733,0.693 2.674,0.446 0.792,-0.198 1.436,-0.496 2.129,-0.743 0.595,0.199 1.04,0.595 1.684,0.743 -0.346,0.693 -1.139,1.139 -1.634,1.733 -1.189,1.338 -2.922,2.228 -4.012,3.863 -1.187,1.585 0.05,3.615 0.892,4.853 1.238,1.239 2.179,3.169 3.913,3.864 0.643,1.087 1.733,0.543 2.475,1.435 -0.099,0.693 -0.446,1.684 0.297,2.08 0.694,0.742 1.684,0 2.625,0.198 0.99,0.049 1.832,-0.248 2.426,-0.842 1.189,-0.842 0.941,-2.525 1.585,-3.664 l 0.099,-0.446 c 3.17,-3.665 6.883,-7.528 10.498,-10.993 2.031,-1.734 3.219,-4.111 3.517,-6.984 0.049,-0.445 -0.099,-0.89 -0.248,-1.237 -1.536,0 -1.931,1.585 -3.021,2.228 M 11.935,-11.34 c -0.347,5.446 -1.833,10.399 -2.229,15.796 -0.049,0.843 -0.396,2.13 0.297,2.675 1.288,0.049 2.674,0.346 3.565,1.04 1.14,1.139 1.734,2.723 2.131,4.308 0.197,0.595 0.792,0.941 0.94,1.585 -0.594,0.396 -1.337,0.396 -1.931,0.842 -0.049,0.99 -0.049,1.832 -0.446,2.673 -0.396,1.189 -1.386,1.882 -2.674,2.031 C 9.706,19.759 8.419,20.749 6.586,20.947 3.863,21.245 2.674,18.67 1.387,16.886 L 1.04,16.738 c -0.248,0.05 -0.248,0.347 -0.297,0.495 l 0.149,4.556 c 0.049,3.467 0,6.834 -0.199,10.35 l -0.148,0.396 h -4.853 v 0.049 c -3.021,0.05 -6.19,0.05 -9.211,0.099 l -0.198,0.199 c 0.347,1.039 0.446,2.475 0.148,3.565 -0.643,2.178 -2.08,4.16 -3.615,5.596 -1.782,1.585 -3.813,3.516 -5.546,5.249 -0.495,0.446 -0.743,0.99 -1.238,1.436 -1.238,1.486 -2.575,2.427 -3.615,4.11 -0.891,1.387 -0.99,3.467 -2.327,4.507 -0.644,0.594 -1.387,0.644 -2.328,0.693 -1.238,0.198 -2.624,0.149 -3.615,-0.545 -1.139,-0.395 -0.644,-1.931 -1.585,-2.476 -1.188,-0.247 -1.881,-1.139 -2.822,-1.832 -1.634,-1.783 -3.12,-3.466 -3.912,-5.893 -0.843,-2.03 0.594,-3.814 1.881,-5.001 0.545,-0.941 2.031,-1.288 2.476,-2.377 l -0.098,-0.05 c -1.288,0.297 -2.873,0.247 -4.209,-0.05 -0.546,0.149 -1.09,0.297 -1.635,0.347 -1.089,-0.05 -2.03,-0.396 -2.674,-1.09 -0.842,-0.89 -0.941,-2.326 -0.743,-3.515 0.298,-1.288 1.734,-1.436 2.674,-2.08 1.931,-0.495 3.417,0.544 5.051,0.742 1.783,-0.94 3.665,-0.742 5.497,-0.297 1.188,-0.494 2.674,-0.396 3.912,-0.049 l 2.477,-0.445 c 1.188,0.049 2.277,0.098 3.218,0.593 l 1.833,-0.445 c 0.94,-0.148 1.782,-0.347 2.624,0.149 l 2.08,-0.446 c 0.594,0.247 1.238,0.396 1.782,0.742 0.546,0.496 0.892,-0.346 1.239,-0.593 0.099,-0.347 0.594,-0.347 0.544,-0.744 -0.644,0 -1.337,0.049 -1.882,-0.049 -2.277,0.148 -4.605,0 -6.834,0.098 l -0.346,-0.098 c -7.082,0.098 -14.212,0.148 -21.541,0.198 -5.745,0.199 -11.093,0.149 -16.788,0.297 -0.792,0 -1.485,-0.049 -2.08,-0.446 v -8.715 -5.2 c 0,-0.148 -0.099,-0.347 -0.297,-0.347 -0.693,0.694 -1.188,1.486 -2.031,2.031 -1.139,0.99 -2.822,0.644 -4.258,0.397 -1.783,-0.199 -3.516,0.098 -4.952,0.296 v 0.05 l -0.892,-0.099 c -0.792,-0.297 -1.535,-0.991 -1.584,-1.981 0.495,-3.813 1.683,-7.725 0.842,-11.737 0,-0.445 -0.149,-1.039 0.445,-0.99 1.139,0 1.882,0.841 2.873,1.04 0.346,-0.05 0.396,-0.347 0.445,-0.693 -0.148,-2.081 0,-4.358 -0.248,-6.438 0.05,-3.07 -0.445,-6.339 -0.247,-9.558 0.099,-2.326 0,-4.605 0.247,-6.834 0.793,-4.456 1.684,-9.656 6.24,-11.34 0.248,-0.446 -0.099,-0.892 -0.297,-1.237 -0.792,-3.765 0.446,-7.132 1.436,-10.399 l 2.427,-5.399 c 4.159,-7.379 10.35,-14.807 18.917,-17.233 1.633,-0.594 3.417,-0.693 5.15,-0.842 l 1.288,-1.09 c 3.168,-2.673 8.764,-2.673 12.677,-1.089 1.089,0.495 1.733,1.535 2.674,2.179 6.338,0.792 12.033,3.516 16.49,7.131 7.874,6.438 10.102,16.887 13.569,26.395 0.297,0.692 1.139,0.692 1.832,0.791 1.188,0.298 2.08,1.189 2.922,2.082 2.723,3.96 2.476,9.903 1.981,14.806"
             style="fill:#231f20;fill-opacity:1;fill-rule:nonzero;stroke:none"
             id="path80" />
        </g>
        <g
           id="g82"
           transform="translate(129.2496,143.3386)">
          <path
             d="m 0,0 -3.268,-1.982 c 0.743,-0.593 1.485,-1.139 2.228,-1.684 z"
             style="fill:#231f20;fill-opacity:1;fill-rule:nonzero;stroke:none"
             id="path84" />
        </g>
        <g
           id="g86"
           transform="translate(82.5514,142.5959)">
          <path
             d="m 0,0 c 0.198,0.048 0.247,-0.05 0.347,-0.149 l -1.09,-1.189 C -0.941,-1.288 -1.04,-1.189 -0.99,-0.991 -0.792,-0.496 -0.495,-0.199 0,0 M 1.536,-0.842 C 1.139,-1.288 0.643,-1.783 0.198,-2.179 c -0.099,-0.05 -0.446,-0.099 -0.446,0.049 -0.049,0.495 0.149,0.842 0.397,1.139 0.446,0.149 1.089,0.792 1.387,0.149 m 0.891,-1.04 C 2.229,-2.328 1.634,-2.675 1.139,-2.873 c -0.198,0 -0.297,0.149 -0.346,0.298 0.148,0.445 0.495,0.841 0.99,0.99 0.346,0.099 0.545,-0.05 0.644,-0.297 M 0.247,-3.22 c 0.595,-0.544 1.536,-0.148 2.081,0.099 0.148,0.1 0.445,0.1 0.495,-0.148 C 2.08,-4.409 0.198,-4.11 -1.089,-3.963 -1.287,-4.11 -1.634,-4.21 -1.485,-4.557 c 0.198,-0.149 0.495,-0.049 0.742,0 0.347,-0.197 0.743,-0.396 1.189,-0.297 1.04,0.148 2.129,0.445 2.723,1.238 0.248,1.238 -0.049,2.328 -0.742,3.22 C 1.536,0 0.693,0.841 -0.446,0.446 -1.04,0.544 -0.99,-0.396 -1.485,-0.248 c -0.149,0.198 -0.099,0.445 0,0.594 -0.05,0.248 -0.347,0.248 -0.545,0.198 -0.594,-0.693 -0.198,-1.981 -0.05,-2.822 0.693,-0.546 1.585,-0.397 2.327,-0.942"
             style="fill:#231f20;fill-opacity:1;fill-rule:nonzero;stroke:none"
             id="path88" />
        </g>
        <g
           id="g90"
           transform="translate(79.2833,131.0075)">
          <path
             d="m 0,0 c -0.495,1.336 -2.278,0.544 -2.971,1.585 -0.099,0.247 -0.099,0.594 0.148,0.693 0.594,0.148 0.891,0.446 1.386,0.743 0.793,1.089 2.18,1.882 2.725,3.268 C 1.585,6.933 0.892,7.131 0.644,7.527 0.297,7.874 0,8.27 -0.396,8.567 -0.544,8.715 -0.892,8.715 -1.04,8.567 -2.575,6.735 -4.556,4.903 -5.744,2.773 -5.942,2.229 -5.844,1.485 -5.596,1.04 c 1.287,-1.98 3.467,-2.773 5.052,-4.605 0.94,-0.842 1.584,-1.981 2.822,-2.278 0.297,-0.1 0.644,0.148 0.742,0.346 0.595,0.941 0.347,2.278 0.1,3.318 C 2.08,-1.436 0.495,-1.337 0,0"
             style="fill:#231f20;fill-opacity:1;fill-rule:nonzero;stroke:none"
             id="path92" />
        </g>
        <g
           id="g94"
           transform="translate(98.7448,124.174)">
          <path
             d="m 0,0 c -0.842,1.386 -1.932,2.376 -3.12,3.516 -2.922,3.317 -6.041,5.595 -8.716,9.111 -0.544,0.446 -0.94,1.238 -1.733,1.238 -0.198,-0.149 -0.544,-0.149 -0.495,-0.545 3.417,-3.762 6.933,-7.477 10.548,-11.34 1.287,-1.139 2.526,-2.625 3.863,-3.664 l 0.149,0.099 C 0.545,-0.892 0.148,-0.545 0,0"
             style="fill:#231f20;fill-opacity:1;fill-rule:nonzero;stroke:none"
             id="path96" />
        </g>
        <g
           id="g98"
           transform="translate(85.8698,130.9079)">
          <path
             d="m 0,0 c -1.535,0.942 -3.962,0.595 -5.101,2.081 0.099,1.237 1.585,1.336 2.526,1.633 C -0.198,2.724 0.99,0.248 3.07,-1.237 4.11,-2.377 5.001,-3.515 6.041,-4.555 5.348,-4.753 4.853,-4.357 4.209,-4.208 L 2.922,-4.16 C 2.723,-2.179 1.684,-0.743 0,0 M 5.596,-5.694 7.725,-5.2 7.824,-5.051 C 4.952,-1.931 1.535,1.288 -1.338,4.507 -1.981,4.754 -2.625,4.804 -3.17,5.052 -3.615,4.903 -3.714,4.656 -4.061,4.358 -4.507,4.11 -5.349,4.507 -5.497,3.813 -5.745,3.22 -6.388,2.872 -6.438,2.229 l 1.139,-1.437 c 0.694,-0.296 1.436,-0.593 2.03,-1.039 1.387,-0.149 2.823,-0.347 3.665,-1.386 0.99,-0.793 1.189,-2.229 1.337,-3.467 l 0.446,-0.148 c 1.138,0.345 2.476,0.048 3.417,-0.446"
             style="fill:#231f20;fill-opacity:1;fill-rule:nonzero;stroke:none"
             id="path100" />
        </g>
        <g
           id="g102"
           transform="translate(83.7897,125.61)">
          <path
             d="m 0,0 c 0.743,0.198 1.98,-0.743 2.229,0.297 0.148,0.446 0,0.94 -0.1,1.337 C 2.031,2.179 1.585,2.772 1.139,3.07 0.743,3.219 0.247,3.367 -0.049,3.07 -0.248,2.129 0,1.138 -0.148,0.247 Z"
             style="fill:#231f20;fill-opacity:1;fill-rule:nonzero;stroke:none"
             id="path104" />
        </g>
        <g
           id="g106"
           transform="translate(89.0387,124.4211)">
          <path
             d="M 0,0 C -0.247,-0.198 -0.793,0 -0.892,-0.396 0,-1.337 1.486,-2.328 3.12,-1.931 3.12,-1.782 3.07,-1.684 3.021,-1.634 2.377,-0.645 1.239,-0.049 0,0"
             style="fill:#231f20;fill-opacity:1;fill-rule:nonzero;stroke:none"
             id="path108" />
        </g>
        <g
           id="g110"
           transform="translate(72.3502,123.0837)">
          <path
             d="M 0,0 C -0.941,0.545 -1.783,1.734 -3.12,1.189 -3.268,0.991 -3.516,0.892 -3.466,0.545 -3.565,0.099 -3.268,-0.297 -2.971,-0.594 -1.98,-0.94 -0.941,-0.644 0,-0.347 0.099,-0.297 0.148,-0.05 0,0"
             style="fill:#231f20;fill-opacity:1;fill-rule:nonzero;stroke:none"
             id="path112" />
        </g>
        <g
           id="g114"
           transform="translate(73.5392,124.0749)">
          <path
             d="m 0,0 c 0.841,-0.842 1.634,-1.832 2.971,-1.981 0.396,-0.05 0.842,0.049 1.04,0.346 C 3.169,-0.892 2.278,-0.199 1.188,0.148 0.743,0.148 0.346,0.346 0,0"
             style="fill:#231f20;fill-opacity:1;fill-rule:nonzero;stroke:none"
             id="path116" />
        </g>
        <g
           id="g118"
           transform="translate(93.6935,124.2228)">
          <path
             d="M 0,0 C -0.247,-0.099 -0.594,-0.049 -0.594,-0.396 0,-1.04 0.644,-1.932 1.783,-1.783 2.031,-1.634 2.179,-1.387 2.08,-1.04 1.536,-0.446 0.941,0.049 0,0"
             style="fill:#231f20;fill-opacity:1;fill-rule:nonzero;stroke:none"
             id="path120" />
        </g>
        <g
           id="g122"
           transform="translate(78.9362,124.1242)">
          <path
             d="m 0,0 c -0.197,-0.099 -0.693,0.05 -0.544,-0.348 0.842,-0.742 1.981,-1.583 3.318,-1.386 0.198,0.1 0.544,0.1 0.495,0.397 C 2.278,-0.743 1.437,0.248 0,0"
             style="fill:#231f20;fill-opacity:1;fill-rule:nonzero;stroke:none"
             id="path124" />
        </g>
        <g
           id="g126"
           transform="translate(83.7897,123.5793)">
          <path
             d="M 0,0 C 0.693,-0.693 1.684,-1.486 2.922,-1.386 3.219,-1.288 3.615,-1.288 3.714,-0.94 2.872,-0.05 1.585,0.396 0.247,0.297 0.148,0.247 -0.1,0.247 0,0"
             style="fill:#231f20;fill-opacity:1;fill-rule:nonzero;stroke:none"
             id="path128" />
        </g>
        <g
           id="g130"
           transform="translate(62.8424,102.632)">
          <path
             d="m 0,0 c -0.248,-0.049 -0.248,0.297 -0.297,0.495 0.049,1.288 0.248,2.575 0.445,3.813 -0.247,0.446 -0.891,0.743 -1.238,1.139 -0.693,0.694 -1.485,1.239 -2.079,1.832 -0.149,0.297 0.198,0.447 0.346,0.546 1.288,0.445 2.675,0.544 3.962,0.99 0.742,1.287 1.337,2.822 2.426,3.813 C 4.308,12.479 4.556,11.637 4.704,10.994 5.199,10.4 5.348,9.657 5.695,8.964 5.843,8.815 6.14,8.815 6.338,8.815 7.477,8.765 8.765,8.319 9.954,8.171 10.201,8.072 10.251,7.775 10.201,7.576 9.31,6.586 8.617,5.596 7.527,4.754 7.23,4.011 7.874,3.416 7.874,2.723 L 8.122,0.594 C 8.022,0.446 7.923,0.198 7.725,0.297 6.438,0.644 5.15,1.337 3.961,1.931 2.624,1.387 1.436,0.396 0,0 m 25.404,-36.942 c -0.346,-0.149 -0.495,0.098 -0.643,0.296 -0.1,0.297 0.049,0.496 0.297,0.594 0.247,-0.05 0.495,-0.05 0.594,-0.297 0.05,-0.247 -0.099,-0.445 -0.248,-0.593 m -1.09,16.49 c -2.178,-0.297 -4.506,-0.1 -6.585,0.199 -0.149,0 -0.297,0.197 -0.446,0.048 -0.991,0.347 -1.734,-0.397 -2.625,-0.048 0.149,1.089 1.734,0.346 2.575,0.643 0.297,0.049 0.199,0.396 0.396,0.494 0.793,0.199 1.634,-0.048 2.476,0 0.199,-0.197 -0.149,-0.445 0.099,-0.594 1.338,-0.197 2.823,0.1 4.16,-0.346 l 0.149,-0.149 z m -9.161,5.744 0.297,-0.148 c 0.644,-0.941 1.189,-1.932 1.338,-3.121 -0.396,-0.197 -0.694,-0.148 -1.04,0.199 -0.644,0.693 -0.941,2.08 -0.595,3.07 m -2.129,0.049 c -0.446,-0.098 -0.792,0.149 -1.089,0.546 -0.05,0.148 0.049,0.346 0.197,0.445 0.347,0 0.694,-0.148 0.793,-0.445 0,-0.149 0.149,-0.297 0.099,-0.546 m 7.626,-54.769 c 3.467,2.673 6.488,5.744 9.062,9.211 4.408,5.546 8.023,12.083 10.846,18.917 1.188,3.219 2.674,6.238 3.565,9.558 1.04,3.515 2.179,6.932 2.921,10.646 2.278,10.894 3.764,22.582 2.972,34.417 l -0.148,0.247 c -7.429,0 -14.807,-0.049 -22.433,0.05 -3.863,-0.05 -8.023,0.05 -12.133,-0.05 l -0.05,-0.099 0.743,-0.446 c 2.03,-1.485 3.12,-3.712 4.061,-5.893 0.743,-0.098 1.486,-0.297 2.129,-0.593 0.991,-0.496 1.585,-1.585 1.882,-2.724 0.446,-1.733 -0.445,-3.665 0.05,-5.447 -0.05,-1.387 1.188,-2.08 2.129,-2.526 1.585,-0.693 2.03,-2.328 2.229,-4.011 0.544,-1.932 0.445,-4.309 0.891,-6.339 0.891,-1.089 0.445,-2.822 0,-3.961 0.198,-0.842 0.099,-1.981 0.099,-2.724 0.346,0.446 0.297,1.139 0.544,1.684 0.248,1.138 1.041,2.526 0.595,3.763 -0.149,0.396 0.247,0.496 0.099,0.892 0.247,0.197 0.297,0.495 0.198,0.842 0.297,0.494 0.247,1.139 0.495,1.634 0,0.545 0.099,1.337 0.396,1.832 0.297,0.099 0.595,0 0.793,0.198 0.395,-0.198 0.643,-0.495 0.792,-0.941 -0.347,-0.347 -0.149,-0.99 -0.495,-1.386 0.049,-0.148 0.198,-0.447 0,-0.594 0.098,-1.04 -0.644,-1.734 -0.693,-2.724 -0.397,-0.248 -0.595,-0.594 -0.892,-0.99 -0.149,-0.297 0.099,-0.743 -0.247,-0.843 l -0.892,-3.219 c -0.297,-1.783 -1.733,-3.763 -0.693,-5.694 0.148,-0.544 0.495,-1.14 0.247,-1.684 0.05,-1.338 -1.089,-1.733 -1.733,-2.624 -1.337,-0.248 -0.841,-1.833 -1.436,-2.675 -0.099,-0.446 -0.544,-1.188 0.099,-1.436 0.05,-0.396 -0.049,-0.693 -0.396,-0.942 -0.396,0.348 -0.099,1.04 -0.297,1.487 0.05,1.238 0.743,2.278 0.644,3.566 l 0.792,0.742 c -0.099,0.397 -0.05,0.991 -0.396,1.09 -0.297,-0.396 -0.149,-1.139 -0.545,-1.388 l -0.149,0.051 -0.197,2.229 c 0.098,0.89 0.544,1.485 1.04,2.178 l -0.1,1.881 c -0.198,1.041 -0.693,1.882 -0.445,3.021 -0.149,1.387 0.94,2.229 1.139,3.467 0.099,0.347 0.594,0.247 0.891,0.148 0.05,0.248 -0.099,0.348 -0.099,0.496 -0.495,0.396 -1.238,-0.05 -1.634,0.099 -0.297,0.495 0.248,0.99 0.495,1.337 0.347,0.742 -0.644,0.594 -0.595,1.337 0.149,0.347 0.545,0.248 0.842,0.347 0.149,0.198 -0.049,0.446 -0.297,0.494 -1.683,2.179 0.595,6.092 -1.683,7.775 -0.446,-0.396 0.05,-0.94 0,-1.485 0.347,-1.634 -0.743,-2.972 -0.347,-4.655 0.05,-1.635 -0.149,-3.318 0.248,-4.853 -0.149,-0.693 -0.198,-1.535 -0.644,-2.03 -0.099,-0.149 -0.347,-0.049 -0.297,0.198 0.346,1.337 -0.05,2.872 -0.05,4.06 -0.198,0.446 0.248,0.892 -0.148,1.139 -0.545,-0.297 -0.396,-1.139 -0.693,-1.634 h -0.248 l -0.297,1.337 h -0.149 c -0.198,-0.099 -0.149,-0.346 -0.248,-0.495 -0.346,-1.288 -0.148,-3.021 -1.237,-3.862 -0.694,-0.743 -1.783,0 -2.674,-0.05 -1.932,0.396 -1.239,2.872 -1.833,4.358 -0.594,0.297 -0.099,-0.693 -0.594,-0.693 -0.446,0.297 -0.693,0.792 -0.693,1.336 -0.1,0.249 -0.05,0.644 0.346,0.644 0.099,0.693 -0.446,1.089 -0.842,1.535 -0.841,1.189 -0.296,2.724 0,4.061 l -0.148,0.297 c -0.446,0 -0.545,-0.594 -0.743,-0.841 -0.297,-0.248 -0.198,-0.743 -0.495,-0.992 -0.298,-0.247 -0.446,0.249 -0.792,0.1 0,-1.04 0.544,-1.684 0.891,-2.575 0.099,-0.743 0.247,-1.535 0.099,-2.328 -0.049,-0.198 -0.198,-0.347 -0.446,-0.445 -0.643,0.297 -1.139,0.841 -1.932,0.693 -0.098,-0.396 -0.247,-0.792 -0.197,-1.188 0.792,-0.595 1.535,-1.139 1.832,-2.08 -0.099,-0.892 -0.099,-2.08 -0.99,-2.377 0.049,-0.297 0.296,-0.694 0.545,-0.892 l 1.039,-0.049 c 0.248,0.098 0.496,0.148 0.644,-0.149 -0.347,-0.892 -0.148,-2.03 0.545,-2.624 0.198,-0.594 -0.05,-1.437 0.297,-1.932 0.495,0.348 0.297,1.139 0.594,1.635 0.099,0.395 0.149,1.039 0.644,1.139 0.743,-0.545 0.198,-1.882 0.842,-2.526 0.297,0.247 0.099,0.743 0.148,1.09 0.1,0.494 -0.099,1.237 0.496,1.386 l 1.485,-1.338 c 0.248,-0.197 0.297,-0.494 0.594,-0.494 0.198,0.94 -0.841,1.387 -0.594,2.328 0.941,0 1.981,-0.1 2.922,-0.051 0.346,-0.049 0.941,0.1 1.09,-0.297 -0.248,-0.643 -0.397,-1.534 -0.744,-2.178 l 0.1,-0.099 c 0.544,0.148 0.841,0.791 1.04,1.287 0.198,0.297 0.445,0.743 0.891,0.792 0.446,-0.692 -0.05,-1.485 -0.297,-2.129 0,-0.197 0.198,-0.248 0.396,-0.197 0.644,-0.248 0.545,-1.141 0.644,-1.784 -0.248,-1.336 0.099,-2.624 0.148,-4.011 -0.049,-0.347 -0.297,-0.495 -0.644,-0.545 -1.435,0.148 -2.872,-0.148 -4.357,-0.099 -1.634,0.198 -3.367,-0.049 -5.002,-0.049 -0.545,-0.249 -1.238,-0.347 -1.733,-0.693 -0.198,-0.644 0.495,-0.843 0.347,-1.436 0.198,-0.348 0.545,0.197 0.841,0.247 1.09,0.148 2.625,0.593 3.566,-0.149 0.693,-0.297 1.089,0.495 1.783,0.198 0.495,-0.941 0.941,-2.03 1.336,-3.07 l 0.149,-0.05 c 0.198,1.239 0.595,2.476 1.584,3.27 0.447,0.247 1.14,0.247 1.536,-0.1 0.644,-0.594 -0.099,-1.437 -0.198,-2.031 0.148,-1.287 -1.287,-1.832 -0.694,-3.12 0.248,-0.296 0.397,-0.692 0.892,-0.692 0.396,0 0.545,0.248 0.644,0.544 0.346,0.297 0.099,0.942 0.445,1.239 0.347,-0.199 0.298,-0.645 0.298,-1.04 -0.842,-0.942 -0.546,-2.724 -0.397,-4.012 l -0.643,-2.525 c 0.346,-1.634 -0.05,-3.369 -0.099,-5.101 0.099,-1.337 -0.644,-2.675 -0.05,-3.912 0.099,-1.387 1.189,-2.477 2.377,-2.922 0.743,-0.595 1.883,-0.644 2.377,-1.535 0.198,-0.445 0,-0.792 -0.347,-1.139 -1.386,-0.842 -3.713,-0.595 -5.001,0.297 -0.891,0.594 -2.426,0.197 -3.318,0.644 -0.99,0.693 -0.446,2.13 -0.495,3.218 0.644,2.279 0.545,5.002 -0.099,7.181 l -0.099,3.367 0.099,0.941 c 0.297,0.892 0.148,1.882 -0.149,2.774 0,2.277 0.297,4.209 -0.247,6.387 l -0.15,0.099 c -0.643,-2.277 0.1,-5.1 -0.197,-7.526 0.099,-0.792 -0.396,-1.288 -0.149,-2.031 -0.05,-1.633 0.396,-4.358 -0.396,-5.744 -0.297,-1.634 0.149,-2.872 -0.347,-4.407 -0.148,-1.239 0.793,-1.981 0.496,-3.219 0.049,-0.941 0.495,-2.031 -0.149,-2.675 -1.09,-0.594 -2.129,-1.287 -3.367,-1.782 -0.793,-0.694 -1.387,-1.337 -2.427,-1.535 -0.594,-0.099 -0.99,-0.346 -1.634,-0.397 -0.347,0.1 -0.693,0.298 -0.892,0.595 -0.445,0.446 -0.049,1.138 0.05,1.585 0.346,0.544 1.09,0.94 0.991,1.585 -1.189,1.434 -1.932,3.515 -2.575,5.248 -1.238,4.16 -2.13,8.37 -2.873,12.677 0.05,0.199 -0.247,0.248 -0.099,0.397 -0.792,5.348 -1.634,10.746 -2.228,16.144 -0.248,2.772 -0.297,5.695 -0.545,8.418 -0.545,1.09 -0.892,2.179 -1.189,3.467 0.199,1.039 0.991,1.634 1.635,2.327 0.297,2.327 0.693,4.704 1.337,6.883 0.099,0.297 0.297,0.546 0.693,0.546 0.198,-0.1 0.248,-0.496 0.198,-0.743 -0.545,-2.824 0.496,-5.448 0.644,-8.221 0.594,-0.446 0.594,-1.189 1.139,-1.585 0.495,-0.098 0.99,-0.247 1.535,-0.297 l 0.05,0.643 c 0.247,2.229 0.891,4.408 1.04,6.736 0.247,1.882 2.377,2.03 3.615,3.07 1.337,1.337 0.198,3.714 0.94,5.447 0.1,0.793 -0.148,1.684 0.347,2.278 0.248,0.545 0.743,0.743 0.891,1.337 -1.436,1.089 -2.921,2.328 -3.961,3.963 -0.248,0.693 -0.99,1.386 -0.495,2.178 0.644,0.198 1.238,-0.545 1.881,-0.693 l 0.05,0.297 c -0.149,0.644 -0.248,1.534 0.05,2.079 l -0.496,0.1 -12.281,0.148 c -3.219,0.149 -6.388,-0.05 -9.706,0 -0.446,0 -0.99,0.05 -1.287,-0.297 -0.099,-5.298 -0.05,-10.894 0.396,-16.144 0.247,-2.921 0.247,-5.893 0.594,-8.764 0.05,-2.279 0.594,-4.26 0.891,-6.439 1.387,-10.2 4.358,-19.263 8.122,-28.127 2.575,-5.348 5.447,-10.499 9.112,-15.005 2.773,-3.318 5.892,-6.19 9.359,-9.013 0.693,-0.198 0.99,0.297 1.535,0.545"
             style="fill:#231f20;fill-opacity:1;fill-rule:nonzero;stroke:none"
             id="path132" />
        </g>
        <g
           id="g134"
           transform="translate(80.6202,108.9216)">
          <path
             d="M 0,0 C 0.198,-0.347 0.594,-0.149 0.892,-0.05 1.535,0.346 0.792,0.99 0.792,1.535 0,3.318 -0.99,4.903 -2.624,5.991 L -2.674,5.942 C -2.229,3.763 -1.733,1.485 0,0"
             style="fill:#231f20;fill-opacity:1;fill-rule:nonzero;stroke:none"
             id="path136" />
        </g>
        <g
           id="g138"
           transform="translate(76.3121,113.1301)">
          <path
             d="M 0,0 C 0.396,-0.743 0.891,-1.486 1.585,-1.932 L 0.941,-0.347 C 0.644,-0.198 0.297,0.05 0,0"
             style="fill:#231f20;fill-opacity:1;fill-rule:nonzero;stroke:none"
             id="path140" />
        </g>
        <g
           id="g142"
           transform="translate(12.8761,110.7038)">
          <path
             d="M 0,0 C -0.545,1.089 -1.783,1.635 -2.972,1.436 -3.863,1.089 -4.309,0.149 -4.309,-0.644 l 3.863,-1.585 C -0.198,-1.535 0.248,-0.842 0,0"
             style="fill:#231f20;fill-opacity:1;fill-rule:nonzero;stroke:none"
             id="path144" />
        </g>
        <g
           id="g146"
           transform="translate(85.2262,103.5231)">
          <path
             d="m 0,0 c -0.148,-0.247 -0.199,-0.445 -0.446,-0.544 -0.347,0 -0.248,0.346 -0.347,0.593 0,0.347 0.347,0.347 0.594,0.447 C 0.148,0.545 0.099,0.199 0,0 m -0.05,-5.15 c 0.297,0.099 0.396,-0.198 0.396,-0.396 -0.049,-1.486 -0.099,-3.318 -1.535,-3.813 -0.644,-0.149 -1.188,-0.05 -1.733,0 -0.446,0.445 -1.04,0.545 -1.337,1.138 -0.248,0.595 -0.495,1.239 -0.298,1.981 -0.197,0.297 -0.297,0.743 -0.148,1.09 0.446,0 0.743,-0.297 1.089,-0.396 0.644,-0.148 1.436,-0.446 2.031,-0.446 z m -0.941,0.693 -0.198,-0.098 c -0.099,0.098 -0.099,0.247 0.05,0.346 0.148,0 0.198,-0.099 0.148,-0.248 m -2.773,5.349 c 0.446,-0.1 1.089,-0.396 1.486,0 0.098,0.099 0.247,0.296 0.098,0.445 -0.544,0.148 -1.188,0.148 -1.683,0.447 0,0.494 -0.149,1.137 0.347,1.435 0.743,0.099 1.485,-0.099 2.179,0.099 0.445,-0.05 0.891,-0.297 1.039,-0.743 0.15,-0.297 0.198,-0.743 0.099,-1.09 -0.396,-0.445 -1.089,0.249 -1.287,-0.346 -0.297,-0.643 0.297,-1.683 -0.545,-1.882 0.099,-0.197 0.397,-0.396 0.198,-0.693 -0.099,-0.05 -0.396,-0.05 -0.396,-0.248 0.396,-0.247 0.347,-0.792 0.446,-1.238 -0.248,-0.495 -0.842,-0.049 -1.288,-0.197 -0.05,-0.694 1.139,-0.645 0.842,-1.536 -0.446,-0.396 -0.99,0.1 -1.337,0.248 l -0.396,0.396 c 0.198,0.892 -0.1,2.031 0.248,2.872 0.296,0.842 -0.892,1.437 -0.05,2.031 m 4.11,1.832 C -0.148,3.566 -0.991,4.407 -2.08,4.506 -2.972,4.259 -3.962,3.962 -4.655,3.417 -4.952,1.882 -5.398,0.347 -5.051,-1.287 -5.448,-2.773 -5.448,-4.852 -7.28,-5.101 c 0.099,-0.396 0.644,0 1.04,-0.099 0.495,-0.346 0.545,-1.287 0.644,-1.93 0.297,-0.694 0.644,-1.585 1.188,-2.131 0.495,-0.544 1.09,-0.841 1.783,-1.039 l 1.188,-0.05 1.289,0.595 c 0.494,0.494 0.742,1.09 1.088,1.633 0.198,0.843 0.149,1.734 0.248,2.477 -0.149,0.347 0.297,0.495 0.05,0.793 -0.495,0.247 -0.793,0.643 -1.09,1.039 -0.792,0.396 -0.198,1.188 -0.296,1.783 0.098,0.891 0.742,1.585 0.395,2.625 0.445,0.593 0.445,1.486 0.099,2.129"
             style="fill:#231f20;fill-opacity:1;fill-rule:nonzero;stroke:none"
             id="path148" />
        </g>
        <g
           id="g150"
           transform="translate(38.7257,105.4548)">
          <path
             d="m 0,0 c -0.347,-0.1 -0.545,-0.347 -0.495,-0.743 0.396,-2.278 1.039,-4.407 1.188,-6.833 0.099,-0.1 0.099,0.048 0.198,0.048 1.288,1.585 1.338,4.656 0.347,6.389 C 0.99,-0.644 0.644,-0.1 0,0"
             style="fill:#231f20;fill-opacity:1;fill-rule:nonzero;stroke:none"
             id="path152" />
        </g>
        <g
           id="g154"
           transform="translate(47.5402,65.7883)">
          <path
             d="m 0,0 c -0.247,0.198 -0.198,0.545 -0.297,0.842 -0.991,0 -1.98,-0.792 -2.971,-0.694 0,0.347 -0.397,0.644 -0.1,1.04 0.991,0.199 1.833,0.397 2.724,0.842 0.248,0.546 -0.792,0.644 -0.247,1.09 0.446,0 0.891,0 1.039,-0.446 C 0.05,1.833 1.436,0.495 0,0 M -4.061,4.358 -1.04,5.052 C -0.693,5.15 -0.445,4.853 -0.396,4.556 -0.297,4.259 -0.445,3.962 -0.743,3.912 -1.832,3.863 -2.971,3.615 -4.011,3.664 -4.16,3.863 -4.16,4.16 -4.061,4.358 m -0.544,2.723 c -0.149,0.644 0.594,0.496 0.99,0.596 l 2.03,0.197 c 0.248,0.1 0.199,0.495 0.1,0.645 -0.1,0.147 -0.198,0.345 -0.05,0.444 0.198,0.05 0.594,0.05 0.644,-0.247 -0.05,-0.941 0.396,-1.882 0.099,-2.774 -0.149,-0.147 -0.396,-0.296 -0.594,-0.147 0,0.297 0.198,0.544 0.049,0.792 -0.94,0.297 -2.031,-0.149 -3.02,0.049 -0.199,0.05 -0.248,0.248 -0.248,0.445 m -0.347,5.052 c 0,0.445 0.495,0.248 0.743,0.396 1.337,-0.049 1.932,0.049 3.169,-0.049 0.248,-0.792 0.198,-1.585 0.05,-2.377 -0.149,-0.199 -0.446,-0.248 -0.693,-0.15 -0.1,0.546 0.395,0.893 0.148,1.388 -0.248,0.148 -0.594,0.05 -0.742,-0.05 -0.298,-0.396 0.247,-1.04 -0.496,-0.99 -0.297,-0.05 -0.792,-0.05 -0.595,0.445 -0.049,0.198 0.348,0.347 0.1,0.595 -0.198,0.098 -0.644,0.148 -0.743,-0.1 -0.396,-0.742 0.396,-1.138 0.248,-1.782 -0.347,0.05 -0.743,0.1 -0.891,0.347 -0.248,0.693 -0.347,1.485 -0.298,2.327 m 0.198,4.159 c 0.545,0.249 1.238,0 1.882,0.1 0.693,-0.1 1.684,0.445 2.08,-0.247 h -0.05 c -0.049,-0.595 0.298,-2.082 -0.544,-2.625 -0.446,-0.248 -1.139,-0.248 -1.585,0 -0.495,0.296 -0.694,0.94 -0.792,1.585 -0.298,0.296 -0.891,-0.051 -1.04,0.395 0,0.297 -0.198,0.595 0.049,0.792 m 0.149,5.299 0.148,0.149 c 1.288,0.098 2.575,0 3.813,0.05 l 0.149,-0.199 -0.049,-2.278 c -0.149,-0.247 -0.446,-0.346 -0.744,-0.396 -0.148,0 -0.197,0.199 -0.197,0.297 0.099,0.396 0.594,0.991 0.197,1.338 -0.247,0.049 -0.594,0.099 -0.692,-0.15 -0.1,-0.297 0.148,-0.693 -0.249,-0.792 -0.296,0.05 -0.692,-0.098 -0.791,0.199 -0.1,0.296 0.148,0.693 -0.198,0.792 -0.248,-0.049 -0.644,0.05 -0.694,-0.297 0,-0.495 0.594,-0.991 0.199,-1.387 -0.348,0.099 -0.694,0.199 -0.892,0.496 -0.049,0.742 -0.149,1.436 0,2.178 m 0.049,12.776 c 0.793,0.249 1.684,0 2.476,0.199 0.397,0.05 0.842,0.247 1.288,0.099 0.347,-0.694 0.297,-1.437 0.347,-2.13 -0.099,-0.297 -0.298,-0.445 -0.595,-0.544 -0.198,0 -0.297,0.148 -0.248,0.346 0.05,0.297 0.248,0.594 0.1,0.941 -0.149,0.099 -0.495,0.099 -0.644,0 -0.297,-0.198 0.099,-0.495 -0.099,-0.743 -0.298,-0.098 -0.644,-0.247 -0.891,0 -0.149,0.198 0,0.645 -0.396,0.645 -0.298,0.048 -0.545,-0.1 -0.644,-0.347 -0.05,-0.396 0.396,-0.792 0,-1.139 -0.397,-0.099 -0.545,0.247 -0.694,0.445 0.05,0.744 -0.247,1.535 0,2.228 m 2.476,-6.19 c -0.049,-0.247 0.149,-0.297 0.347,-0.247 0.495,-0.199 1.189,0.347 1.288,-0.346 0.098,-0.249 -0.05,-0.496 -0.298,-0.546 -1.188,0.15 -2.377,-0.049 -3.466,0 -0.248,0.05 -0.198,0.397 -0.099,0.496 l 1.634,1.782 c 0.099,0.149 -0.099,0.198 -0.198,0.198 -0.496,0.049 -1.733,-0.346 -1.436,0.645 0,0.297 0.198,0.346 0.396,0.346 1.287,-0.198 2.229,0.247 3.417,0.1 l 0.148,-0.249 C -0.148,29.119 -1.585,28.92 -2.08,28.177 m 0.991,-3.218 c -0.297,-0.05 -0.594,-0.297 -0.694,-0.595 -0.099,-0.644 -0.544,-1.238 -1.237,-1.337 -0.248,-0.149 -0.545,0 -0.793,0.05 -0.644,0.495 -0.792,1.337 -0.644,2.179 0,0.347 0.248,0.643 0.595,0.693 0.247,0.05 0.494,-0.05 0.396,-0.346 -0.05,-0.447 -0.347,-0.892 -0.099,-1.288 0.148,-0.198 0.396,-0.198 0.545,-0.049 0.643,0.643 0.594,1.683 1.535,1.931 0.495,0.05 0.841,-0.198 1.04,-0.545 0.346,-0.793 0.198,-1.733 -0.099,-2.476 -0.347,-0.248 -0.694,-0.05 -1.09,0 -0.149,0.644 0.693,0.793 0.743,1.486 -0.099,0.099 -0.05,0.297 -0.198,0.297 M 3.219,-2.674 c -1.684,2.327 -2.377,5.101 -2.922,8.072 -0.594,6.091 0.149,11.836 0.297,17.976 -0.198,4.21 0.495,9.013 -0.643,13.222 -0.396,1.238 -0.892,2.923 -2.427,2.971 -1.089,-0.297 -2.377,-0.297 -3.664,-0.347 0.198,-1.089 0.594,-2.278 0.743,-3.416 0.544,-3.417 0.495,-7.033 0.396,-10.349 -0.1,-6.339 -0.694,-12.382 -0.198,-18.571 0.643,-3.913 0.545,-9.063 4.605,-10.549 1.288,-0.347 2.823,-0.197 3.714,0.446 0.099,0.15 0.248,0.347 0.099,0.545"
             style="fill:#231f20;fill-opacity:1;fill-rule:nonzero;stroke:none"
             id="path156" />
        </g>
        <g
           id="g158"
           transform="translate(123.9508,69.3547)">
          <path
             d="m 0,0 c -0.792,-0.596 -1.832,-0.645 -2.723,-0.149 -0.644,0.495 -1.189,1.336 -0.99,2.278 0.395,0.891 0.99,1.585 2.029,1.732 C -0.792,4.209 -0.247,2.624 0.545,3.614 1.139,3.317 0.693,2.476 0.644,1.93 0.743,1.187 0.594,0.444 0,0 M -3.615,8.171 C -3.12,7.923 -2.674,7.576 -2.228,7.328 L 0.149,6.387 C 0.347,6.14 0.198,5.942 0,5.793 -1.089,5.348 -1.98,4.654 -3.02,3.961 c -0.149,-0.05 -0.298,0.05 -0.347,0.197 -0.05,0.348 -0.198,1.041 0.149,1.238 0.643,0.05 1.188,0.347 1.534,0.843 -0.148,0.347 -0.692,0.495 -1.039,0.594 -0.347,-0.099 -1.09,-0.297 -0.99,0.396 0,0.297 -0.199,0.792 0.098,0.942 m -0.247,2.079 c 1.238,-0.197 2.475,0.197 3.664,0.347 C 0.099,10.399 0.198,10.003 0.149,9.557 0.099,9.409 0,9.21 -0.247,9.259 c -1.14,0 -2.427,0.05 -3.219,-0.644 l -0.446,0.05 c 0,0.496 -0.446,1.238 0.05,1.585 m -0.05,4.011 c 0.594,-0.148 -0.247,-1.931 0.892,-1.189 0.197,0.1 0.049,0.347 0.099,0.546 0.247,0.149 0.643,0.396 0.941,0.099 0.049,-0.298 0.148,-0.645 0.593,-0.496 0.198,0.05 0.347,0.149 0.347,0.347 0.05,0.545 -0.891,1.04 -0.149,1.337 0.297,0.049 0.546,-0.198 0.595,-0.445 l 0.297,-2.179 C -0.594,11.835 -1.189,12.23 -1.634,12.082 l -2.377,-0.445 c -0.347,0.545 -0.297,1.387 -0.347,2.08 0,0.297 0.199,0.494 0.446,0.544 m -1.189,3.367 c -0.197,0.298 -0.098,0.644 0.1,0.892 0.198,0.148 0.396,0.446 0.693,0.248 0.049,-0.396 -0.248,-0.892 0,-1.288 l 0.247,-0.099 c 0.843,0.198 1.833,0.247 2.674,0.445 0.347,-0.148 0.198,-0.693 0.347,-1.039 l -0.297,-0.148 c -0.842,-0.1 -1.733,-0.1 -2.575,-0.249 -0.347,-0.148 -0.247,-0.544 -0.149,-0.791 0.1,-0.149 0.248,-0.347 0.1,-0.496 -0.347,-0.099 -0.397,0.149 -0.644,0.248 -0.297,0.693 -0.248,1.584 -0.496,2.277 m -0.396,2.032 c 0,0.742 -0.692,1.98 0.199,2.376 h 0.099 c 0.098,-0.446 -0.298,-1.09 0.247,-1.337 0.496,0.05 1.09,0.198 0.842,0.841 0.099,0.298 0.545,0.348 0.792,0.199 0.248,-0.247 -0.099,-0.693 0.298,-0.793 0.346,-0.149 0.544,0.1 0.594,0.347 0.198,0.495 -0.545,0.842 -0.149,1.288 1.238,-0.099 0.644,-1.684 0.941,-2.526 0,-0.198 -0.198,-0.247 -0.297,-0.297 -1.04,0.248 -2.179,-0.148 -3.318,-0.247 z m -0.197,4.604 c 0.296,0.545 0.941,0.793 1.386,1.387 -0.099,0.941 -1.881,1.039 -1.139,2.13 1.139,-0.199 2.229,-0.298 3.318,-0.396 0.247,-0.297 0.149,-0.645 0.149,-1.04 -0.446,-0.348 -0.843,0.247 -1.387,0.148 l -0.248,-0.05 c 0.099,-0.495 1.337,-0.891 0.595,-1.584 -0.149,-0.198 -0.545,-0.198 -0.496,-0.495 0.396,-0.248 1.04,-0.149 1.436,0.049 0.396,-0.049 0.347,-0.595 0.297,-0.941 l -0.148,-0.148 c -1.139,0.098 -2.427,0.544 -3.615,0.148 -0.298,0.149 -0.198,0.495 -0.148,0.792 m 6.338,9.112 c 0.248,0.496 0.595,0.842 0.693,1.387 -0.594,0.098 -1.287,0.198 -1.931,0.445 -0.842,0.1 -1.386,1.041 -2.327,0.644 -3.021,-3.317 -4.16,-8.22 -3.814,-13.37 0.842,-6.735 1.932,-13.272 2.724,-20.006 0.099,-1.635 0.099,-2.526 0.247,-4.161 2.031,-0.792 3.368,-2.723 3.467,-5.001 l 0.148,-0.049 c 0.645,0.792 0.892,1.732 1.09,2.773 C 1.833,0.247 1.585,5.051 0.892,9.259 0.05,16.985 -3.268,26.146 0.644,33.376"
             style="fill:#231f20;fill-opacity:1;fill-rule:nonzero;stroke:none"
             id="path160" />
        </g>
        <g
           id="g162"
           transform="translate(124.6442,96.6896)">
          <path
             d="M 0,0 C 0.248,-0.05 0.495,-0.099 0.743,0.05 0.842,0.99 1.436,1.783 1.832,2.625 2.328,3.813 3.12,5.051 2.971,6.389 2.922,6.537 2.724,6.586 2.526,6.586 1.386,5.646 0.891,4.457 0.347,3.119 0.05,2.08 -0.347,1.04 0,0"
             style="fill:#231f20;fill-opacity:1;fill-rule:nonzero;stroke:none"
             id="path164" />
        </g>
        <g
           id="g166"
           transform="translate(127.0709,96.8376)">
          <path
             d="m 0,0 c 0,-0.297 0.248,-0.395 0.544,-0.347 0.644,0.297 0.744,0.892 0.941,1.436 0,0.298 0.297,0.645 0,0.892 C 0.792,1.535 0.099,0.941 0,0"
             style="fill:#231f20;fill-opacity:1;fill-rule:nonzero;stroke:none"
             id="path168" />
        </g>
        <g
           id="g170"
           transform="translate(82.5514,97.2341)">
          <path
             d="m 0,0 c -0.198,0.049 -0.743,0.198 -0.693,-0.148 0.396,-0.545 0.99,-0.743 1.634,-0.842 0.495,0.149 0.842,0.643 1.139,1.039 V 0.297 C 1.387,0.396 0.693,-0.446 0,0"
             style="fill:#231f20;fill-opacity:1;fill-rule:nonzero;stroke:none"
             id="path172" />
        </g>
        <g
           id="g174"
           transform="translate(67.5465,88.2219)">
          <path
             d="M 0,0 C -0.148,0.099 -0.495,0.148 -0.346,0.445 0.05,0.494 0.347,0.297 0.792,0.346 0.842,0.247 0.941,0.197 0.892,0.049 0.644,-0.149 0.248,-0.05 0,0 M -0.445,1.485 C -0.049,1.336 0.595,1.436 1.04,1.187 1.139,1.139 1.189,0.891 1.09,0.842 0.693,0.693 0.149,0.594 -0.198,0.891 -0.346,1.089 -0.693,1.237 -0.445,1.485 m 0.297,1.04 C 0.298,2.426 0.743,2.426 1.04,2.079 1.139,1.782 0.842,1.683 0.644,1.683 0.298,1.733 0,1.832 -0.198,2.079 c -0.049,0.15 -0.099,0.297 0.05,0.446 M 0.248,-1.288 C 0.941,-1.585 1.04,-0.842 1.585,-0.595 2.675,-0.1 1.387,0.792 1.684,1.683 1.833,2.476 1.04,2.625 0.545,2.971 0.396,3.021 0.396,3.268 0.545,3.318 1.684,3.268 1.932,2.129 2.526,1.436 2.724,0.693 2.724,-0.249 2.625,-0.941 2.724,-1.089 2.922,-1.189 3.12,-1.041 3.169,-0.446 3.219,0.099 3.071,0.594 2.823,1.633 2.328,2.625 1.585,3.268 L 1.833,3.466 C 1.783,4.357 1.783,5.298 1.536,6.09 L 1.337,6.14 1.139,4.605 C 1.04,4.258 1.189,4.011 1.09,3.615 L 0.248,3.565 C -0.346,3.069 -0.941,2.426 -1.04,1.633 -0.99,1.04 -0.941,0.494 -0.643,0 -0.396,-0.496 0.248,-0.298 0.545,-0.644 0.446,-0.792 0.298,-0.842 0.149,-0.892 0,-1.089 0.198,-1.189 0.248,-1.288"
             style="fill:#231f20;fill-opacity:1;fill-rule:nonzero;stroke:none"
             id="path176" />
        </g>
        <g
           id="g178"
           transform="translate(79.7286,90.9445)">
          <path
             d="m 0,0 c -0.148,-0.049 -0.197,-0.197 -0.148,-0.346 l 1.089,-1.733 c 0.396,-1.04 0.495,-2.476 1.783,-2.773 0.198,0 0.297,0.148 0.248,0.347 -0.495,0.643 -0.941,1.534 -0.99,2.376 C 1.733,-1.187 0.792,-0.445 0,0"
             style="fill:#231f20;fill-opacity:1;fill-rule:nonzero;stroke:none"
             id="path180" />
        </g>
        <g
           id="g182"
           transform="translate(71.8058,58.1623)">
          <path
             d="m 0,0 c 0.544,-4.011 1.584,-7.774 2.773,-11.39 l 0.148,-0.099 c -1.089,8.469 -2.08,17.184 -3.268,25.602 -0.495,3.912 -1.04,7.824 -1.485,11.737 h 0.049 l -0.148,1.436 c -0.248,0.545 -0.991,0.594 -1.536,0.742 -0.198,-0.049 -0.149,-0.297 -0.198,-0.445 l 0.297,-3.715 c 0.298,-2.079 0.199,-4.158 0.793,-6.139 0.891,-0.941 0.644,-2.426 0.941,-3.665 0.198,-1.931 0.742,-3.961 0.396,-5.843 C -1.09,5.348 -0.545,2.724 0,0"
             style="fill:#231f20;fill-opacity:1;fill-rule:nonzero;stroke:none"
             id="path184" />
        </g>
        <g
           id="g186"
           transform="translate(76.1139,81.883)">
          <path
             d="M 0,0 C -0.198,0.1 -0.396,0.148 -0.644,0.148 -1.485,0.197 -1.585,1.139 -1.981,1.683 -3.268,1.733 -4.16,2.624 -5.15,3.119 L -5.249,2.921 c 0.148,-2.079 0.544,-4.011 0.693,-6.14 1.089,-6.24 1.733,-13.074 2.724,-19.511 0.594,-4.953 1.04,-9.855 1.783,-14.708 l 0.197,-0.248 c 0.495,0.297 0.495,0.793 0.892,1.189 0.644,0.743 0.545,1.98 0.99,2.872 l -0.247,6.24 c 0,1.832 -0.941,3.615 -0.198,5.397 -0.446,1.386 0.198,2.923 -0.446,4.16 -0.892,2.179 -0.446,5.15 -1.436,7.28 -0.099,1.089 -0.099,2.526 0,3.664 -0.199,1.486 -0.396,3.17 -0.05,4.655 C -0.248,-1.485 0,-0.743 0,0"
             style="fill:#231f20;fill-opacity:1;fill-rule:nonzero;stroke:none"
             id="path188" />
        </g>
        <g
           id="g190"
           transform="translate(45.4606,80.1496)">
          <path
             d="M 0,0 C 0.247,0.099 0.396,0.248 0.445,0.545 0.495,0.94 0,0.792 -0.198,0.842 -0.545,0.842 -0.891,0.792 -0.792,0.396 -0.594,0.148 -0.347,-0.051 0,0"
             style="fill:#231f20;fill-opacity:1;fill-rule:nonzero;stroke:none"
             id="path192" />
        </g>
        <g
           id="g194"
           transform="translate(84.9283,76.1877)">
          <path
             d="m 0,0 c -1.04,-0.544 -2.08,-1.237 -3.466,-1.04 -0.198,-0.098 -0.05,-0.247 0.049,-0.396 0.792,-0.544 1.981,-0.148 2.773,0.099 0.199,0 0.149,-0.198 0.1,-0.297 -0.297,-0.545 -0.941,-0.842 -1.585,-0.891 -0.149,-0.15 0.099,-0.347 0.247,-0.447 0.495,-0.147 0.941,0.05 1.338,0.297 0.296,0.348 0.792,0.743 0.544,1.338 -0.346,0.446 0.545,0.793 0.495,1.238 z"
             style="fill:#231f20;fill-opacity:1;fill-rule:nonzero;stroke:none"
             id="path196" />
        </g>
        <g
           id="g198"
           transform="translate(123.505,70.8898)">
          <path
             d="m 0,0 c -0.099,0 -0.297,0.098 -0.297,0.247 0,0.297 0.248,0.347 0.248,0.594 C -0.495,1.188 -1.188,1.039 -1.733,0.99 -2.08,0.742 -2.476,0.445 -2.525,0 c 0.049,-0.297 0.099,-0.496 0.396,-0.694 0.445,-0.397 1.337,-0.346 1.931,-0.199 C 0.05,-0.694 0.446,-0.396 0.446,0 0.347,0.247 0.199,0 0,0"
             style="fill:#231f20;fill-opacity:1;fill-rule:nonzero;stroke:none"
             id="path200" />
        </g>
        <g
           id="g202"
           transform="translate(118.6525,61.2326)">
          <path
             d="m 0,0 c -0.099,-0.297 -0.446,-0.248 -0.694,-0.148 -0.94,0.248 -1.93,0.692 -2.872,0.841 -0.346,0.544 0.198,1.287 0.198,1.932 0.199,0.347 0.545,0.594 0.941,0.444 -0.049,-0.593 -0.891,-0.989 -0.297,-1.484 0.347,0.049 0.495,-0.198 0.644,0.198 0,0.247 0.248,0.396 0.495,0.347 0.248,-0.1 0.594,-0.1 0.496,-0.446 -0.05,-0.198 -0.199,-0.544 0.148,-0.644 0.347,0 0.644,0 0.693,0.397 0.1,0.346 -0.247,0.643 0.05,0.94 C 0.049,2.427 0.198,2.179 0.347,2.08 0.495,1.337 0.099,0.693 0,0 m -1.089,-3.268 -0.297,-0.099 c -0.743,0.297 -1.536,0.643 -2.428,0.743 -0.495,-0.248 -0.049,-0.893 -0.296,-1.288 -0.298,-0.099 -0.446,0.148 -0.644,0.298 l -0.05,0.444 0.792,2.775 c 0.149,0.197 0.743,0.247 0.793,-0.05 -0.149,-0.297 -0.595,-0.594 -0.446,-1.04 0.793,-0.447 1.783,-0.545 2.674,-0.744 0.297,-0.296 0.05,-0.694 -0.098,-1.039 m -1.09,-2.674 c -0.248,0.099 -0.445,-0.149 -0.495,-0.347 0,-0.348 -0.05,-0.396 0.05,-0.693 0.544,-0.149 0.346,-0.842 0.148,-1.239 -0.198,-0.198 -0.396,0 -0.545,0.199 l -2.427,2.377 c -0.049,0.099 -0.049,0.247 0,0.396 1.091,0.347 2.328,0.197 3.417,0.495 0.248,0.099 0.446,-0.05 0.446,-0.298 -0.148,-0.346 -0.049,-0.94 -0.594,-0.89 m -1.04,-4.16 c -0.298,-0.297 -0.842,0.099 -1.189,0.247 l -1.486,0.496 c -0.247,-0.248 -0.197,-0.594 -0.297,-0.941 -0.297,-0.099 -0.395,0.198 -0.495,0.347 l -0.099,0.297 0.793,2.327 c 0.149,0.099 0.346,0.198 0.544,0.198 0.199,0 0.298,-0.149 0.347,-0.297 -0.148,-0.199 -0.594,-0.396 -0.445,-0.743 0.693,-0.445 1.485,-0.792 2.327,-0.941 0.297,-0.247 0.148,-0.743 0,-0.99 m -1.634,-3.268 c -0.149,0 -0.297,-0.1 -0.347,-0.199 0.149,-0.297 0.694,-0.198 0.644,-0.694 -0.149,-0.297 -0.149,-0.692 -0.495,-0.792 -0.05,-0.049 -0.198,0.1 -0.297,0.149 -0.743,0.446 -1.783,0.843 -2.626,1.139 -0.148,0.595 0.248,1.139 0.397,1.733 0.198,0.396 0.495,0.743 0.941,0.843 0.396,0 0.793,-0.1 0.99,-0.397 0.248,-0.247 0,-0.99 0.595,-0.891 0.396,0.05 0.891,0.297 1.287,0.148 -0.05,-0.644 -0.495,-0.841 -1.089,-1.039 m -0.743,-3.269 c -0.396,-0.594 -0.693,-1.288 -1.238,-1.881 -0.892,0.494 -1.783,1.04 -2.773,1.435 -0.297,0.1 -0.198,0.545 -0.149,0.743 0.496,0.544 0.544,1.782 1.585,1.436 l 0.049,-0.149 c -0.247,-0.396 -1.09,-0.495 -0.743,-1.139 0.199,-0.048 0.743,-0.395 0.842,0.149 -0.049,0.247 0.1,0.495 0.248,0.495 0.248,-0.098 0.594,-0.148 0.792,-0.395 0,-0.397 -0.495,-0.644 -0.297,-0.941 0.198,-0.099 0.446,-0.249 0.644,-0.099 0.247,0.346 0.199,0.89 0.396,1.237 0.298,0.05 0.545,-0.197 0.644,-0.446 z m -3.17,-5.595 c -0.148,-0.15 -0.297,0.049 -0.446,0.049 -0.742,0.792 -1.782,1.237 -2.574,1.93 0.098,0.991 0.792,1.735 1.584,2.131 0.347,0.049 0.595,-0.1 0.842,-0.347 -0.049,-1.089 1.386,-0.099 1.536,-0.991 0.594,-1.09 -0.495,-1.98 -0.942,-2.772 m -1.733,-2.279 -0.198,-0.049 c -0.743,0.743 -1.535,1.485 -2.426,2.031 -0.347,0.197 -0.05,0.544 0.049,0.791 0.446,0.545 0.793,-0.099 1.189,-0.247 l 1.882,-1.634 c 0.099,-0.348 -0.248,-0.693 -0.496,-0.892 m -2.476,-2.427 c -0.148,-0.198 -0.396,-0.148 -0.495,0 -0.644,0.794 -1.585,1.486 -2.129,2.228 -0.05,0.299 0.347,0.893 0.792,0.694 0.495,-0.643 1.138,-1.337 1.832,-1.584 0.545,0.099 0.347,0.941 0.991,0.89 0.842,-1.088 -0.594,-1.485 -0.991,-2.228 m -6.883,-4.753 c -0.297,-0.049 -0.347,0.248 -0.396,0.445 -0.297,0.842 -0.495,1.734 -1.09,2.328 -0.396,0.099 -0.544,-0.347 -0.593,-0.693 l -0.249,-2.823 c -0.099,-0.198 -0.297,-0.347 -0.494,-0.198 -0.793,0.842 -1.486,1.683 -2.279,2.574 0,0.447 0.545,0.397 0.793,0.546 0.395,0 0.247,-0.496 0.445,-0.644 0.347,-0.198 0.495,-0.842 1.041,-0.743 0.297,0.693 -0.248,1.387 0,2.031 0.989,0.544 1.931,0.891 2.971,1.386 0.495,0.049 0.891,-0.099 1.04,-0.495 -0.297,-0.991 0.99,-0.891 1.04,-1.684 -0.05,-1.238 -1.437,-1.436 -2.229,-2.03 m -7.032,-2.08 c -0.347,0 -0.396,0.247 -0.495,0.496 0.198,0.394 0.743,0.097 1.04,0.445 0.099,0.594 -0.743,0.495 -0.99,0.841 -0.397,0.05 -0.645,0.298 -0.843,0.546 -0.099,0.297 0,0.643 0.149,0.841 0.397,0.446 0.99,0.496 1.485,0.693 0.347,-0.049 0.496,-0.247 0.496,-0.544 -0.248,-0.397 -0.842,0.148 -1.089,-0.297 0,-0.693 0.991,-0.496 1.435,-0.893 0.347,-0.247 0.644,-0.643 0.595,-1.088 -0.248,-0.744 -1.189,-0.744 -1.783,-1.04 M 0.495,5.051 C -0.644,5.547 -1.932,5.101 -2.823,4.407 -5.002,2.328 -5.2,-1.039 -6.24,-3.863 c -1.287,-4.111 -2.179,-8.616 -4.159,-12.28 -1.932,-3.517 -4.259,-6.637 -7.577,-9.013 -0.842,-0.595 -1.783,-1.437 -2.873,-1.734 -2.426,-1.585 -5.546,-2.426 -8.666,-2.97 -0.742,0 -0.248,-0.794 -0.396,-1.19 -0.049,-0.445 -0.446,-0.692 -0.396,-1.188 0.544,-0.694 0.991,-1.535 1.337,-2.427 l 0.248,-0.148 c 2.921,0.346 5.695,1.089 8.27,2.228 3.961,1.684 7.23,4.309 10.053,7.131 0.594,0.595 1.039,1.288 1.683,1.883 2.822,4.457 5.15,9.458 6.636,14.805 0.891,1.882 1.189,4.061 1.981,5.943 C 0.099,-1.188 0.643,0.148 1.04,1.585 1.337,2.328 1.832,3.069 2.03,3.862 1.733,4.506 1.089,4.704 0.495,5.051"
             style="fill:#231f20;fill-opacity:1;fill-rule:nonzero;stroke:none"
             id="path204" />
        </g>
        <g
           id="g206"
           transform="translate(85.275,62.4699)">
          <path
             d="m 0,0 c -0.148,0.249 -0.049,0.645 -0.197,0.893 -0.15,0.147 -0.397,0 -0.546,-0.1 -0.099,-1.238 0.248,-2.476 0.694,-3.565 0.197,-0.199 0.445,0.049 0.693,0.098 C 0.545,-2.029 0.1,-1.237 0.1,-0.544 0.495,-0.395 0.743,-0.247 1.089,0 1.238,0.396 1.733,0.941 1.337,1.288 0.743,0.991 0.446,0.348 0,0"
             style="fill:#231f20;fill-opacity:1;fill-rule:nonzero;stroke:none"
             id="path208" />
        </g>
        <g
           id="g210"
           transform="translate(121.277,62.966)">
          <path
             d="m 0,0 c -0.149,-0.496 -0.693,-0.99 -0.248,-1.535 0.248,-0.15 0.595,-0.05 0.792,0.148 0,0.446 0.298,0.941 0.199,1.287 C 0.643,0.297 0.148,0.495 0,0"
             style="fill:#231f20;fill-opacity:1;fill-rule:nonzero;stroke:none"
             id="path212" />
        </g>
        <g
           id="g214"
           transform="translate(50.5114,60.1935)">
          <path
             d="M 0,0 C 0.05,-0.299 0.297,-0.546 0.595,-0.496 2.08,-0.149 3.021,-1.09 4.21,-1.585 4.705,-1.635 5.101,-1.338 5.249,-0.893 5.546,0.098 5.497,1.386 4.853,2.179 L 4.16,2.773 C 2.526,3.367 2.476,1.633 1.436,1.088 1.04,0.644 -0.099,0.841 0,0"
             style="fill:#231f20;fill-opacity:1;fill-rule:nonzero;stroke:none"
             id="path216" />
        </g>
        <g
           id="g218"
           transform="translate(80.9674,62.6691)">
          <path
             d="m 0,0 c -0.347,0.247 -0.545,-0.149 -0.892,-0.1 -0.495,0.05 -0.743,0.297 -1.238,0.248 -0.297,-0.991 -0.247,-2.327 0,-3.219 0.198,-0.494 0.793,-0.446 1.189,-0.446 0.248,0.298 0.841,0.397 0.841,0.792 -0.445,0.2 -0.841,-0.097 -1.237,-0.197 -0.05,0.544 -0.842,1.238 -0.05,1.634 C -2.031,0.05 -0.05,-0.99 0,0"
             style="fill:#231f20;fill-opacity:1;fill-rule:nonzero;stroke:none"
             id="path220" />
        </g>
        <g
           id="g222"
           transform="translate(66.7047,29.3908)">
          <path
             d="m 0,0 c -0.297,-0.149 -0.594,0.1 -0.792,0.197 -0.148,0.793 0.693,1.09 0.644,1.784 -0.496,0.198 -1.09,-0.496 -1.437,-0.05 -0.198,0.198 -0.099,0.891 -0.495,0.743 -0.396,-0.298 -0.346,-1.04 -0.792,-1.238 -0.247,0.049 -0.495,0.198 -0.594,0.495 0.149,0.397 0.644,0.793 0.891,1.188 0.347,0.595 0.545,1.288 1.04,1.734 C -0.544,4.754 -1.238,3.367 -0.644,2.872 0.099,2.922 0.941,3.615 1.535,3.07 1.337,1.931 0.347,1.04 0,0 m -4.605,2.625 c -0.297,0.147 -0.644,0.594 -0.397,0.99 0.199,0.247 0.149,0.495 -0.049,0.742 -0.198,0.2 -0.545,0.595 -0.842,0.544 -0.297,0.15 -1.089,-0.742 -1.238,0.1 0,0.347 0.446,0.248 0.694,0.347 1.089,0.198 1.881,0.743 2.971,1.09 0.198,0 0.297,-0.149 0.347,-0.347 C -3.367,4.853 -4.011,3.961 -4.16,2.674 -4.258,2.525 -4.457,2.575 -4.605,2.625 m -4.953,5.199 c 0.298,0.594 0.941,0.843 1.437,1.287 L -6.834,10.3 C -6.14,10.102 -5.992,9.358 -5.596,8.963 -5.15,8.27 -5.496,7.229 -5.893,6.686 -6.289,6.339 -6.685,6.042 -7.23,5.992 -8.369,6.239 -9.012,6.982 -9.558,7.824 m -1.485,2.08 0.049,0.247 c 1.041,0.545 1.883,1.387 2.774,2.031 0.396,-0.049 0.495,-0.396 0.594,-0.743 l -0.099,-0.296 c -1.04,-0.595 -1.733,-1.387 -2.724,-1.932 -0.396,0.05 -0.495,0.347 -0.594,0.693 m -1.436,2.129 c -0.397,0.347 -0.397,1.04 -0.248,1.535 0.297,0.892 0.991,1.388 1.932,1.535 0.693,0 1.287,-0.346 1.585,-0.941 0.148,-0.297 0.396,-0.743 0.148,-1.089 -0.198,-0.049 -0.148,-0.248 -0.347,-0.148 -0.247,0.346 -0.099,1.04 -0.644,1.188 -0.494,0.149 -0.941,-0.05 -1.287,-0.298 -0.298,-0.247 -0.693,-0.593 -0.595,-1.039 -0.098,-0.643 0.843,-0.792 0.744,-1.337 -0.595,-0.099 -0.941,0.247 -1.288,0.594 m -1.683,2.823 c 0.098,0.446 0.693,0.594 0.494,1.139 -0.099,0.248 -0.148,0.495 -0.445,0.594 -0.347,-0.049 -0.991,-0.346 -1.04,0.248 -0.099,0.297 0.149,0.495 0.347,0.495 1.188,0 2.426,0.396 3.664,0.247 l 0.099,-0.147 c -0.693,-1.189 -1.684,-2.179 -2.476,-3.417 -0.396,0.098 -0.496,0.495 -0.643,0.841 m -2.08,4.358 c -0.397,1.09 1.138,0.793 1.634,1.188 0.593,0.199 1.485,1.287 1.881,0.149 0.05,-0.793 -0.941,-0.494 -1.337,-0.891 -0.396,-0.396 -1.485,-0.247 -1.188,-1.09 0.099,-0.346 0.693,-0.395 0.396,-0.742 -0.941,-0.199 -0.991,0.891 -1.386,1.386 m -1.239,3.417 c -0.049,0.346 -0.396,0.743 -0.049,1.04 1.139,0.297 2.129,0.743 3.218,1.139 0.793,-0.297 0.644,-1.436 0.893,-2.179 0,-0.397 -0.1,-0.842 -0.496,-1.089 -0.347,-0.298 -0.743,-0.298 -1.238,-0.199 -0.545,0.297 -0.694,0.99 -1.139,1.436 -0.446,0.05 -0.842,-0.643 -1.189,-0.148 M 8.914,2.328 C 7.676,2.376 6.24,2.674 5.051,3.119 3.417,3.664 1.783,4.11 0.545,5.2 c -4.506,2.426 -7.676,6.933 -10.3,11.29 -1.239,2.279 -2.08,4.754 -2.922,7.28 -0.446,1.337 -0.694,2.823 -1.139,4.16 -0.199,0.297 -0.545,0.644 -0.99,0.742 -1.139,0.149 -2.328,-0.098 -3.17,-0.891 -0.693,-0.495 -0.545,-1.585 -0.594,-2.476 0.693,-4.259 2.228,-8.12 4.258,-11.637 2.674,-5.3 6.785,-9.954 11.588,-13.173 2.427,-1.684 5.497,-2.476 8.518,-3.021 0.694,-0.049 1.486,-0.396 2.08,0.05 0.198,0.743 0.446,1.584 1.04,2.079 C 9.409,-0.05 9.013,0.544 9.013,1.04 8.865,1.485 9.211,1.931 8.914,2.328"
             style="fill:#231f20;fill-opacity:1;fill-rule:nonzero;stroke:none"
             id="path224" />
        </g>
        <g
           id="g226"
           transform="translate(114.5421,55.2902)">
          <path
             d="M 0,0 C 0.149,-0.198 0.347,-0.396 0.594,-0.396 0.743,-0.248 0.842,-0.1 0.743,0.148 0.545,0.247 0.149,0.197 0,0"
             style="fill:#231f20;fill-opacity:1;fill-rule:nonzero;stroke:none"
             id="path228" />
        </g>
        <g
           id="g230"
           transform="translate(51.9972,51.923)">
          <path
             d="M 0,0 C 0.248,0.099 0.396,0.247 0.396,0.544 0.446,1.089 -0.248,0.842 -0.495,0.742 -0.743,0.693 -0.842,0.495 -0.693,0.347 -0.545,0.147 -0.347,-0.05 0,0"
             style="fill:#231f20;fill-opacity:1;fill-rule:nonzero;stroke:none"
             id="path232" />
        </g>
        <g
           id="g234"
           transform="translate(85.8698,48.6047)">
          <path
             d="M 0,0 C 0.148,0.05 0.198,0.247 0.247,0.446 0.049,0.99 0.049,2.03 -0.892,1.535 -1.387,1.437 -1.139,0.843 -1.189,0.446 -0.991,0 -0.396,0.297 0,0"
             style="fill:#231f20;fill-opacity:1;fill-rule:nonzero;stroke:none"
             id="path236" />
        </g>
        <g
           id="g238"
           transform="translate(112.0162,48.8517)">
          <path
             d="m 0,0 c -0.148,-0.099 -0.297,-0.197 -0.347,-0.396 0,-0.198 0.149,-0.346 0.347,-0.346 0.148,-0.049 0.347,0.05 0.347,0.198 C 0.396,-0.247 0.297,0 0,0"
             style="fill:#231f20;fill-opacity:1;fill-rule:nonzero;stroke:none"
             id="path240" />
        </g>
        <g
           id="g242"
           transform="translate(86.8107,47.1691)">
          <path
             d="M 0,0 C 0.248,0.197 0.644,0.05 0.792,-0.199 0.841,-0.594 0.346,-0.496 0.148,-0.396 0.099,-0.297 -0.099,-0.199 0,0 m -2.179,-0.645 c 0.891,-0.098 1.634,-0.296 2.427,-0.593 0.445,0.247 1.039,0.247 1.188,0.842 L 0.544,0.941 C -0.05,1.139 -0.396,0.396 -0.941,0.347 -1.387,0.297 -1.536,0.742 -1.783,0.941 -1.932,0.494 -2.377,-0.1 -2.179,-0.645"
             style="fill:#231f20;fill-opacity:1;fill-rule:nonzero;stroke:none"
             id="path244" />
        </g>
        <g
           id="g246"
           transform="translate(53.4332,46.0793)">
          <path
             d="m 0,0 c 0.05,-0.1 0.099,-0.298 0.297,-0.347 0.149,0.1 0.297,0.199 0.347,0.397 C 0.545,0.247 0.198,0.099 0,0"
             style="fill:#231f20;fill-opacity:1;fill-rule:nonzero;stroke:none"
             id="path248" />
        </g>
        <g
           id="g250"
           transform="translate(79.3824,44.841)">
          <path
             d="M 0,0 C 0.346,0.197 0.941,0.197 1.139,-0.197 1.238,-0.644 0.842,-0.792 0.644,-0.94 0.248,-1.089 0.099,-0.743 -0.05,-0.494 -0.05,-0.197 -0.148,-0.197 0,0 m -2.031,-2.079 c 0.298,0.048 0.397,0.395 0.595,0.643 0.346,0.842 1.139,0.148 1.634,-0.049 0.545,0 1.04,0.148 1.287,0.643 0.248,0.495 -0.049,0.991 -0.247,1.338 L 0.941,0.793 C 0.495,0.94 0.049,1.238 -0.396,1.09 -0.643,0.05 -1.536,-0.792 -2.179,-1.585 -2.278,-1.782 -2.377,-2.079 -2.031,-2.079"
             style="fill:#231f20;fill-opacity:1;fill-rule:nonzero;stroke:none"
             id="path252" />
        </g>
        <g
           id="g254"
           transform="translate(108.0548,41.6223)">
          <path
             d="M 0,0 C -0.247,-0.247 0.148,-0.396 0.347,-0.445 0.495,-0.198 0.644,-0.099 0.644,0.148 0.495,0.644 0.148,0.198 0,0"
             style="fill:#231f20;fill-opacity:1;fill-rule:nonzero;stroke:none"
             id="path256" />
        </g>
        <g
           id="g258"
           transform="translate(109.7877,41.1271)">
          <path
             d="M 0,0 C -0.297,0 -0.445,-0.247 -0.544,-0.495 -0.445,-0.693 -0.247,-0.843 0,-0.892 0.199,-0.793 0.248,-0.594 0.297,-0.446 0.297,-0.198 0.199,-0.05 0,0"
             style="fill:#231f20;fill-opacity:1;fill-rule:nonzero;stroke:none"
             id="path260" />
        </g>
        <g
           id="g262"
           transform="translate(60.1681,38.5021)">
          <path
             d="m 0,0 c -0.644,-0.396 -1.089,-1.04 -1.783,-1.485 -0.197,-0.198 -0.148,-0.544 0.099,-0.644 0.297,-0.197 0.793,-0.197 1.09,0 0.545,0.198 0.742,0.694 0.941,1.189 C 0.396,-0.594 0.495,0 0,0"
             style="fill:#231f20;fill-opacity:1;fill-rule:nonzero;stroke:none"
             id="path264" />
        </g>
        <g
           id="g266"
           transform="translate(24.5133,34.1945)">
          <path
             d="M 0,0 1.882,-2.08 3.565,1.337 Z"
             style="fill:#231f20;fill-opacity:1;fill-rule:nonzero;stroke:none"
             id="path268" />
        </g>
        <g
           id="g270"
           transform="translate(61.8024,34.4914)">
          <path
             d="M 0,0 C 0.099,-0.148 0.248,-0.347 0.446,-0.297 0.495,-0.1 0.743,0.05 0.594,0.247 Z"
             style="fill:#231f20;fill-opacity:1;fill-rule:nonzero;stroke:none"
             id="path272" />
        </g>
        <g
           id="g274"
           transform="translate(98.6954,33.006)">
          <path
             d="m 0,0 c -0.099,-0.1 -0.346,-0.1 -0.346,-0.298 0.049,-0.148 0.148,-0.345 0.297,-0.345 0.148,0.048 0.297,0.247 0.346,0.395 C 0.346,-0.05 0.148,0 0,0"
             style="fill:#231f20;fill-opacity:1;fill-rule:nonzero;stroke:none"
             id="path276" />
        </g>
        <g
           id="g278"
           transform="translate(77.9957,29.5881)">
          <path
             d="M 0,0 C 0.446,0.347 0.05,1.14 0.099,1.733 0.05,1.981 0.148,2.428 -0.247,2.378 -0.793,2.229 -0.793,1.733 -0.941,1.288 -0.941,0.595 -0.496,0.347 0,0"
             style="fill:#231f20;fill-opacity:1;fill-rule:nonzero;stroke:none"
             id="path280" />
        </g>
        <g
           id="g282"
           transform="translate(98.9435,31.7668)">
          <path
             d="m 0,0 c -0.149,-0.445 0.198,-0.742 0.297,-1.089 0.148,-0.197 0.395,-0.049 0.544,0.05 0.149,0.248 0.397,0.495 0.199,0.842 C 0.94,0.298 0.247,0.298 0,0"
             style="fill:#231f20;fill-opacity:1;fill-rule:nonzero;stroke:none"
             id="path284" />
        </g>
        <g
           id="g286"
           transform="translate(79.4816,31.173)">
          <path
             d="m 0,0 c -0.198,-0.643 -0.099,-1.485 0.148,-2.08 1.535,-0.297 3.268,-0.346 4.853,-0.148 0.495,0.446 0.297,1.288 0.446,1.931 L 5.249,-0.148 3.813,-1.188 C 2.327,-2.624 1.336,-0.445 0,0"
             style="fill:#231f20;fill-opacity:1;fill-rule:nonzero;stroke:none"
             id="path288" />
        </g>
        <g
           id="g290"
           transform="translate(86.1666,30.926)">
          <path
             d="m 0,0 c -0.049,-0.545 -0.198,-1.188 -0.049,-1.685 0.148,-0.197 0.247,0.05 0.395,0.05 0.397,0.248 0.892,0.545 0.743,1.19 C 0.941,-0.1 0.396,0.347 0,0"
             style="fill:#231f20;fill-opacity:1;fill-rule:nonzero;stroke:none"
             id="path292" />
        </g>
        <g
           id="g294"
           transform="translate(87.256,27.9553)">
          <path
             d="M 0,0 C -3.169,-0.991 -6.982,-0.793 -10.003,0.147 L -10.3,0.049 c -0.595,-0.595 -0.743,-1.832 -0.446,-2.674 0.793,-1.288 2.526,-1.635 3.962,-1.981 2.823,-0.148 6.189,-0.198 7.577,2.328 C 1.09,-1.288 0.644,-0.596 0,0"
             style="fill:#231f20;fill-opacity:1;fill-rule:nonzero;stroke:none"
             id="path296" />
        </g>
        <g
           id="g298"
           transform="translate(132.2208,27.8058)">
          <path
             d="M 0,0 C -0.198,-0.05 -0.396,-0.1 -0.594,-0.297 -0.891,-0.644 -1.039,-1.09 -0.94,-1.585 0,-2.625 0.892,-3.912 2.13,-4.506 2.526,-4.604 3.021,-4.604 3.269,-4.16 3.566,-3.764 3.418,-3.17 3.17,-2.772 2.378,-1.732 1.387,-0.198 0,0"
             style="fill:#231f20;fill-opacity:1;fill-rule:nonzero;stroke:none"
             id="path300" />
        </g>
        <g
           id="g302"
           transform="translate(124.1989,24.6359)">
          <path
             d="M 0,0 C -0.546,0.744 -1.733,0.991 -2.476,0.348 -2.823,0 -3.17,-0.395 -3.12,-0.99 c 0,-0.494 0.346,-0.891 0.742,-1.139 0.991,-0.445 2.081,0 2.972,0.198 C 0.743,-1.187 0.445,-0.544 0,0"
             style="fill:#231f20;fill-opacity:1;fill-rule:nonzero;stroke:none"
             id="path304" />
        </g>
        <g
           id="g306"
           transform="translate(124.2482,20.1799)">
          <path
             d="m 0,0 -0.099,-0.445 c -0.149,-1.14 0.347,-2.229 1.337,-2.775 0.495,-0.247 1.189,-0.147 1.634,0.05 0.545,0.248 1.089,0.793 1.139,1.388 0.149,0.544 0,1.089 -0.346,1.485 C 2.724,0.841 1.09,0.247 0,0"
             style="fill:#231f20;fill-opacity:1;fill-rule:nonzero;stroke:none"
             id="path308" />
        </g>
        <g
           id="g310"
           transform="translate(75.1237,12.4553)">
          <path
             d="m 0,0 c -0.595,0.395 -1.337,0.594 -2.031,0.445 l -0.594,-4.16 c 0.545,-0.098 1.139,-0.148 1.733,-0.098 0.446,0.147 0.991,0.445 1.189,0.941 C 0.594,-1.981 0.792,-0.694 0,0"
             style="fill:#231f20;fill-opacity:1;fill-rule:nonzero;stroke:none"
             id="path312" />
        </g>
      </g>
    </g>
  </g>
</svg>
